<svg xmlns="http://www.w3.org/2000/svg" xmlns:xlink="http://www.w3.org/1999/xlink" width="20" height="20" viewBox="0 0 20 20"><defs><clipPath id="b"><rect width="20" height="20"/></clipPath></defs><g id="a" clip-path="url(#b)"><path d="M15.517,3.5a5.713,5.713,0,0,1,4.039,9.753l-7.573,7.573a1,1,0,0,1-1.414,0L3,13.25a5.713,5.713,0,0,1,8.079-8.079l.2.2.2-.2A5.674,5.674,0,0,1,15.517,3.5Zm-4.24,15.2,6.866-6.866a3.713,3.713,0,1,0-5.25-5.251l-.908.908a1,1,0,0,1-1.414,0l-.908-.908A3.713,3.713,0,1,0,4.41,11.836Z" transform="translate(-1.276 -2.306)" fill="#a11d34"/></g></svg>