<svg xmlns="http://www.w3.org/2000/svg" xmlns:xlink="http://www.w3.org/1999/xlink" width="20" height="20" viewBox="0 0 20 20"><defs><clipPath id="b"><rect width="20" height="20"/></clipPath></defs><g id="a" clip-path="url(#b)"><path d="M13.862,22.656c3.908,0,7.862-1.35,7.862-3.931V6.931C21.725,4.35,17.77,3,13.862,3S6,4.35,6,6.931V18.725C6,21.306,9.955,22.656,13.862,22.656Zm0-1.966c-3.658,0-5.9-1.272-5.9-1.966V17.479a12.953,12.953,0,0,0,5.9,1.246,12.953,12.953,0,0,0,5.9-1.246v1.246C19.759,19.418,17.521,20.691,13.862,20.691Zm0-15.725c3.658,0,5.9,1.272,5.9,1.966S17.521,8.9,13.862,8.9s-5.9-1.272-5.9-1.966S10.2,4.966,13.862,4.966Zm-5.9,4.651a12.953,12.953,0,0,0,5.9,1.246,12.953,12.953,0,0,0,5.9-1.246v1.246c0,.693-2.239,1.966-5.9,1.966s-5.9-1.272-5.9-1.966Zm0,3.931a12.953,12.953,0,0,0,5.9,1.246,12.953,12.953,0,0,0,5.9-1.246v1.246c0,.693-2.239,1.966-5.9,1.966s-5.9-1.272-5.9-1.966Z" transform="translate(-3.862 -2.828)" fill="#a11d34"/></g></svg>