<svg xmlns="http://www.w3.org/2000/svg" xmlns:xlink="http://www.w3.org/1999/xlink" width="20" height="20" viewBox="0 0 20 20"><defs><clipPath id="b"><rect width="20" height="20"/></clipPath></defs><g id="a" clip-path="url(#b)"><g transform="translate(-1.812 -0.437)"><path d="M11.812.5a8.322,8.322,0,0,1,8.312,8.312c0,6.152-7.441,11.183-7.758,11.394a1,1,0,0,1-1.109,0C10.941,20,3.5,14.964,3.5,8.812A8.322,8.322,0,0,1,11.812.5Zm0,17.642c1.634-1.229,6.312-5.116,6.312-9.33a6.312,6.312,0,0,0-12.625,0C5.5,13.026,10.178,16.913,11.812,18.142Z" transform="translate(0 0)" fill="#a11d34"/><path d="M15.937,9.5A3.437,3.437,0,1,1,12.5,12.937,3.441,3.441,0,0,1,15.937,9.5Zm0,4.875A1.437,1.437,0,1,0,14.5,12.937,1.439,1.439,0,0,0,15.937,14.375Z" transform="translate(-4.125 -4.125)" fill="#a11d34"/></g></g></svg>