<svg xmlns="http://www.w3.org/2000/svg" xmlns:xlink="http://www.w3.org/1999/xlink" width="20" height="20" viewBox="0 0 20 20"><defs><clipPath id="b"><rect width="20" height="20"/></clipPath></defs><g id="a" clip-path="url(#b)"><g transform="translate(-2.562 -1.957)"><path d="M20.625,17.437H4.5a1.01,1.01,0,0,1-.977-.718.979.979,0,0,1,.415-1.109,4.5,4.5,0,0,0,1.106-1.479A12.508,12.508,0,0,0,6.187,8.375a6.375,6.375,0,0,1,12.75,0c0,5.58,2.22,7.215,2.242,7.23a1,1,0,0,1-.555,1.832Zm-14.016-2H18.516q-.057-.1-.113-.2a14.305,14.305,0,0,1-1.466-6.862,4.375,4.375,0,0,0-8.75,0,14.305,14.305,0,0,1-1.466,6.862Q6.665,15.34,6.609,15.437Z" transform="translate(0 0)" fill="#6e7477"/><path d="M16.955,33.393A2.8,2.8,0,0,1,14.54,32a1,1,0,0,1,1.73-1,.792.792,0,0,0,1.37,0,1,1,0,0,1,1.73,1A2.8,2.8,0,0,1,16.955,33.393Z" transform="translate(-4.392 -11.479)" fill="#6e7477"/></g></g></svg>