<svg xmlns="http://www.w3.org/2000/svg" xmlns:xlink="http://www.w3.org/1999/xlink" width="20" height="20" viewBox="0 0 20 20"><defs><clipPath id="b"><rect width="20" height="20"/></clipPath></defs><g id="a" clip-path="url(#b)"><g transform="translate(-3.917 -3.406)"><path d="M21.833,29.437a1,1,0,0,1-1-1V26.458A2.962,2.962,0,0,0,17.875,23.5H9.958A2.958,2.958,0,0,0,7,26.458v1.979a1,1,0,0,1-2,0V26.458A4.958,4.958,0,0,1,9.958,21.5h7.917a4.964,4.964,0,0,1,4.958,4.958v1.979A1,1,0,0,1,21.833,29.437Z" transform="translate(0 -6.125)" fill="#a11d34"/><path d="M15.958,13.417a4.958,4.958,0,1,1,4.958-4.958A4.964,4.964,0,0,1,15.958,13.417Zm0-7.917a2.958,2.958,0,1,0,2.958,2.958A2.962,2.962,0,0,0,15.958,5.5Z" transform="translate(-2.042)" fill="#a11d34"/></g></g></svg>