<svg xmlns="http://www.w3.org/2000/svg" xmlns:xlink="http://www.w3.org/1999/xlink" width="20" height="20" viewBox="0 0 20 20"><defs><clipPath id="b"><rect width="20" height="20"/></clipPath></defs><g id="a" clip-path="url(#b)"><g transform="translate(-2.562 -1.958)"><path d="M7.187,2h10.75a1,1,0,0,1,.8.4l2.688,3.583a1,1,0,0,1,.2.6V19.125a2.8,2.8,0,0,1-2.792,2.792H6.292A2.8,2.8,0,0,1,3.5,19.125V6.583a1,1,0,0,1,.2-.6L6.387,2.4A1,1,0,0,1,7.187,2Zm10.25,2H7.687L5.5,6.917V19.125a.793.793,0,0,0,.792.792H18.833a.793.793,0,0,0,.792-.792V6.917Z" transform="translate(0 0)" fill="#a11d34"/><path d="M20.625,10H4.5a1,1,0,1,1,0-2H20.625a1,1,0,0,1,0,2Z" transform="translate(0 -2.417)" fill="#a11d34"/><path d="M15.583,19.583A4.589,4.589,0,0,1,11,15a1,1,0,0,1,2,0,2.583,2.583,0,1,0,5.167,0,1,1,0,0,1,2,0A4.589,4.589,0,0,1,15.583,19.583Z" transform="translate(-3.021 -4.833)" fill="#a11d34"/></g></g></svg>