<svg xmlns="http://www.w3.org/2000/svg" xmlns:xlink="http://www.w3.org/1999/xlink" width="22" height="20" viewBox="0 0 22 20"><defs><clipPath id="b"><rect width="22" height="20"/></clipPath></defs><g id="a" clip-path="url(#b)"><g transform="translate(-0.454 -3.239)"><path d="M3.31,5H19.6a2.813,2.813,0,0,1,2.81,2.81V18.669a2.813,2.813,0,0,1-2.81,2.81H3.31A2.813,2.813,0,0,1,.5,18.669V7.81A2.813,2.813,0,0,1,3.31,5ZM19.6,19.478a.811.811,0,0,0,.81-.81V7.81A.811.811,0,0,0,19.6,7H3.31a.811.811,0,0,0-.81.81V18.669a.811.811,0,0,0,.81.81Z" transform="translate(0 0)" fill="#a11d34"/><path d="M21.408,16H1.5a1,1,0,0,1,0-2H21.408a1,1,0,1,1,0,2Z" transform="translate(0 -3.571)" fill="#a11d34"/></g></g></svg>