<svg xmlns="http://www.w3.org/2000/svg" xmlns:xlink="http://www.w3.org/1999/xlink" width="20" height="20" viewBox="0 0 20 20"><defs><clipPath id="b"><rect width="20" height="20"/></clipPath></defs><g id="a" clip-path="url(#b)"><g transform="translate(-1.928 -1.928)"><path d="M20.285,27.928H6a1,1,0,0,1-1-1V18a1,1,0,0,1,2,0v7.928H19.285V18a1,1,0,1,1,2,0v8.928A1,1,0,0,1,20.285,27.928Z" transform="translate(-1.214 -6.072)" fill="#a11d34"/><path d="M3,9.5H20.856a1,1,0,0,1,1,1v4.464a1,1,0,0,1-1,1H3a1,1,0,0,1-1-1V10.5A1,1,0,0,1,3,9.5Zm16.856,2H4v2.464H19.856Z" transform="translate(0 -3.036)" fill="#a11d34"/><path d="M18,24.892a1,1,0,0,1-1-1V10.5a1,1,0,0,1,2,0V23.892A1,1,0,0,1,18,24.892Z" transform="translate(-6.072 -3.036)" fill="#a11d34"/><path d="M13.75,8.464H9.732A3.232,3.232,0,1,1,9.732,2a4.619,4.619,0,0,1,4.057,2.75,9.8,9.8,0,0,1,.941,2.518,1,1,0,0,1-.981,1.2ZM9.732,4a1.232,1.232,0,1,0,0,2.464h2.66C11.964,5.4,11.136,4,9.732,4Z" transform="translate(-1.822)" fill="#a11d34"/><path d="M22.018,8.464H18a1,1,0,0,1-.981-1.2,9.8,9.8,0,0,1,.941-2.518A4.619,4.619,0,0,1,22.018,2a3.232,3.232,0,0,1,0,6.464Zm-2.655-2h2.655a1.232,1.232,0,0,0,0-2.464C20.626,4,19.794,5.4,19.362,6.464Z" transform="translate(-6.072)" fill="#a11d34"/></g></g></svg>