<svg xmlns="http://www.w3.org/2000/svg" xmlns:xlink="http://www.w3.org/1999/xlink" width="130" height="130" viewBox="0 0 130 130"><defs><clipPath id="b"><rect width="130" height="130"/></clipPath></defs><g id="a" clip-path="url(#b)"><g transform="translate(1.215 26.56)"><path d="M0,4.43C1.34.73,2.37.03,6.44,0H23.81C38.14,0,52.47-.02,66.8.02c4.51.01,8.95.5,13.09,2.6,3.48,1.77,6.58,3.99,8.61,7.36a5.2,5.2,0,0,0,5.31,2.82c6.57-.23,13.16-.07,19.74-.05,2.99.01,3.97,1.02,3.98,3.99,0,3.17.01,6.33,0,9.5-.01,2.81-1.02,3.87-3.85,3.87q-11,.03-21.99-.04a1.872,1.872,0,0,0-1.85.95c-.67,1.1-1.43,2.15-2.2,3.18-.52.7-.54,1.16.35,1.51a23.351,23.351,0,0,1,12,10.26,1.73,1.73,0,0,0,1.8.8q10.74-.03,21.49-.03c.46,0,.91.04,1.37.05,1.58.05,2.18,1.3,2.92,2.38v12.5c-.79,2.04-2.43,2.48-4.41,2.46-7.17-.05-14.33-.03-21.5-.08a1.915,1.915,0,0,0-1.84.97,25.15,25.15,0,0,1-5.7,6.56,22.3,22.3,0,0,1-11.34,4.77,75.074,75.074,0,0,1-8.21.51q-27.69.06-55.37.02c-1.17,0-2.33.01-3.5-.04-4.15-.19-6.05-2.14-6.07-6.31-.03-6.12,0-12.25,0-18.37V44.54c0-1.65,0-1.63-1.6-1.67a33.31,33.31,0,0,1-3.61-.2C1.68,42.32.52,41.14.15,38.35ZM105.61,59.25c0-2.41.02-4.73-.04-7.05,0-.21-.55-.55-.85-.57-1.58-.09-3.16-.15-4.74-.12a3.439,3.439,0,0,1-3.22-1.74c-.66-1.06-1.25-2.17-1.99-3.17a16.863,16.863,0,0,0-11.02-7.15,89.545,89.545,0,0,0-9.57-.56c-.86-.05-1.14.27-1.13,1.16.04,4.12.02,8.25,0,12.37a9.344,9.344,0,0,1-.25,2.1,2.085,2.085,0,0,1-2.15,1.87,2.161,2.161,0,0,1-2.22-1.95,18.63,18.63,0,0,1-.21-2.99c-.04-3.62-.05-7.25-.07-10.87-.01-1.67-.01-1.68-1.62-1.68q-16.815,0-33.62-.02c-1.08,0-1.31.36-1.31,1.36q.06,15.18.02,30.37c0,1.15.38,1.38,1.43,1.38,9.67-.02,19.33.01,29,.02,6,0,12,.05,18-.06a17.1,17.1,0,0,0,12.29-4.99,28.832,28.832,0,0,0,3.92-5.12,4.767,4.767,0,0,1,4.7-2.61c1.49.09,2.98.02,4.68.02ZM4.68,4.9a2.008,2.008,0,0,0-.13.38q-.015,15.93-.04,31.87c0,.76.36.91,1,.9,1.12-.02,2.26.07,3.37-.06a1.868,1.868,0,0,0,1.25-.87,4.932,4.932,0,0,1,3.92-2.92c.81-.11,1.63-.15,2.52-.23.02-.26.05-.54.05-.82,0-3.83-.02-7.66.01-11.5a10.771,10.771,0,0,1,.3-2.47,2.22,2.22,0,0,1,2.13-1.95,2.1,2.1,0,0,1,2.25,1.78,14.637,14.637,0,0,1,.29,2.96c.03,3.54.06,7.08-.01,10.62-.02,1.11.31,1.41,1.4,1.4q16.815-.045,33.62.02c1.19,0,1.56-.3,1.55-1.51-.05-8.54-.03-17.08-.03-25.62,0-1.98,0-1.98-1.94-1.98H4.69ZM95.6,25.25c0-2.44.02-4.76-.04-7.08,0-.19-.57-.52-.88-.54-1.66-.09-3.33-.13-4.99-.13a3.055,3.055,0,0,1-2.73-1.45c-.75-1.15-1.4-2.37-2.21-3.47A16.859,16.859,0,0,0,73.73,5.45a92.52,92.52,0,0,0-9.44-.56c-.99-.06-1.25.32-1.25,1.3.04,8.54.02,17.07,0,25.61,0,2.24-.02,2.22,2.16,2.23,5.08.02,10.16.08,15.23.06a2.617,2.617,0,0,0,1.52-.67,16.991,16.991,0,0,0,4.36-5.56,4.235,4.235,0,0,1,4.4-2.61c1.53.07,3.07.01,4.89.01ZM26.52,72.04V38.96H14.59c-.02.34-.05.58-.05.82V70.89c0,.12-.05.29,0,.37.22.28.47.74.72.75C19,72.06,22.73,72.04,26.52,72.04Zm96.03-20.41H110.61v7.59h11.94ZM112.51,25.24V17.65H100.64v7.59Z" fill="#63676a"/><path d="M40.82,55.41a9.072,9.072,0,1,0,.01,0Zm9.34-4.33a4.418,4.418,0,0,0-4.61,4.39,4.65,4.65,0,0,0,4.62,4.46,4.367,4.367,0,0,0,4.2-4.53,4.2,4.2,0,0,0-4.2-4.32Z" fill="#63676a"/><path d="M70.7,62.98a2.217,2.217,0,0,1,2.1,2.21,2.119,2.119,0,0,1-2.19,2.2,2.315,2.315,0,0,1-2.22-2.38,2.356,2.356,0,0,1,2.32-2.03Z" fill="#63676a"/><path d="M30.82,21.47A9.2,9.2,0,0,1,40,12.24a9.364,9.364,0,0,1,9.03,9.17,9.233,9.233,0,0,1-9.11,9.19,9,9,0,0,1-9.1-9.13Zm13.54-.02a4.214,4.214,0,0,0-4.15-4.38,4.419,4.419,0,0,0-4.67,4.34,4.629,4.629,0,0,0,4.57,4.51,4.349,4.349,0,0,0,4.25-4.47Z" fill="#63676a"/><path d="M21.35,11.32a2.29,2.29,0,0,1-2.28,2.3A2.421,2.421,0,0,1,16.9,11.3a2.385,2.385,0,0,1,2.2-2.15,2.274,2.274,0,0,1,2.25,2.18Z" fill="#63676a"/></g></g></svg>