<svg xmlns="http://www.w3.org/2000/svg" xmlns:xlink="http://www.w3.org/1999/xlink" width="130" height="130" viewBox="0 0 130 130"><defs><clipPath id="b"><rect width="130" height="130"/></clipPath></defs><g id="a" clip-path="url(#b)"><g transform="translate(1.459 1.01)"><path d="M103.33,119.25a7.236,7.236,0,1,1,.01,0Zm-2.34-7.33a2.367,2.367,0,0,0,2.5,2.48,2.092,2.092,0,0,0,2.2-2.17,2.4,2.4,0,0,0-2.31-2.56,2.18,2.18,0,0,0-2.39,2.25Z" fill="#63676a"/><path d="M89.03,113.7a2.282,2.282,0,0,1-2.43,2.27,2.243,2.243,0,0,1-2.01-2.39,2.306,2.306,0,0,1,2.14-2.03,2.4,2.4,0,0,1,2.3,2.16Z" fill="#63676a"/><path d="M110.52,98.48a2.386,2.386,0,0,1-2.21,2.15,2.348,2.348,0,0,1-2.21-2.39,2.26,2.26,0,0,1,2.39-2.04,2.292,2.292,0,0,1,2.02,2.29Z" fill="#63676a"/><path d="M71.34,105.4a2.075,2.075,0,0,1-2.08,2.17,2.288,2.288,0,0,1-2.32-2.13,2.234,2.234,0,0,1,2.34-2.23,2.1,2.1,0,0,1,2.06,2.18Z" fill="#63676a"/><path d="M45.71,16.74a2.319,2.319,0,0,1-2.1-2.23A2.42,2.42,0,0,1,45.9,12.3a2.343,2.343,0,0,1,2.14,2.34A2.226,2.226,0,0,1,45.71,16.74Z" fill="#63676a"/><path d="M123.49,110.67a5.979,5.979,0,0,0,3.59-2.67V87.25a24.75,24.75,0,0,0-3.41-3.01c-5.96-3.56-12.02-6.97-18.01-10.49a4.49,4.49,0,0,0-4.33-.46c-2.18.89-3.59-.02-3.84-2.33a3.469,3.469,0,0,0-1.77-2.94c-6.03-3.45-12.02-6.97-18.06-10.4a10.045,10.045,0,0,0-6.49-1.31,9.83,9.83,0,0,1-1.33,0,6.488,6.488,0,0,1,0-.89A30.8,30.8,0,0,0,68.62,38.7Q63.235,23.355,57.65,8.07c-1.02-2.8-1.41-5.93-3.82-8.09H16.58c-2.27.81-2.74,2.9-3.44,4.84C9.37,15.3,5.69,25.82,1.79,36.25A35.133,35.133,0,0,0,.04,49.9c.1,3.14-.27,6.32.8,9.41,3.07,8.85,8.47,15.71,16.99,19.81a73.912,73.912,0,0,0,8.51,3.12,1.328,1.328,0,0,1,1.11,1.48c-.03,8.46,0,16.91,0,25.37,0,3.69-.56,4.54-3.94,5.92-3.04,1.25-6.08,2.5-9.1,3.78a4.967,4.967,0,0,0-3.35,3.58,4.233,4.233,0,0,0,2.98,5.06,6.146,6.146,0,0,1,1.04.56H55.83s-.04-.05-.06-.07h4.36c-.1.02-.2.05-.3.07h7.75A6.29,6.29,0,0,0,70,124.5a2.215,2.215,0,0,1,2.32-1.52,2.186,2.186,0,0,1,2.18,1.36,2.032,2.032,0,0,1,.19.46,4.8,4.8,0,0,0,2.64,3.2h42.25c-.37-.17,2.086.115,4.69-3.04a7.885,7.885,0,0,0,2.3-6.02c.17.36.127-2.638-3.27-3.89a2.049,2.049,0,0,1-1.24-2.23,2.118,2.118,0,0,1,1.42-2.13ZM75.83,61.91c4.74,2.69,9.45,5.44,14.17,8.17a16.87,16.87,0,0,1,1.93,1.14,2.569,2.569,0,0,1,.92,1.22c1.34,4.68,4.74,6.71,9.52,5.67a2.4,2.4,0,0,1,1.55.12c3.77,2.11,7.5,4.28,11.25,6.44-.02.1-.05.2-.07.29H58.42c.53-2.09.94-4.11,1.55-6.06a44.706,44.706,0,0,1,8.4-15.61c2.24-2.68,4.38-3.12,7.46-1.37ZM87.01,90.06a4.41,4.41,0,0,1-3.99,2.36,4.845,4.845,0,0,1-4.49-2.36h8.48ZM7.09,35.36q5.25-14.61,10.5-29.22a1.511,1.511,0,0,1,1.67-1.21q15.555.06,31.12.01c.78,0,1.26.1,1.58.99Q57.24,20.8,62.61,35.62a6.875,6.875,0,0,1,.17.8c-2.13,0-4.11.05-6.08-.05-.34-.02-.77-.68-.94-1.13-1.27-3.43-2.47-6.88-3.71-10.32a14.6,14.6,0,0,0-1.06-2.39A2.17,2.17,0,0,0,47,24.09c.42,1.61.97,3.18,1.51,4.75.83,2.43,1.7,4.84,2.62,7.47H6.97a4.734,4.734,0,0,1,.13-.94ZM24.05,76.77A28.394,28.394,0,0,1,7.41,62.91c-3.57-6.56-4-13.44-2.58-20.59.17-.83.46-1.14,1.38-1.14,9.54.04,19.08.03,28.62.03v.02c9.46,0,18.91.02,28.37-.03,1.05,0,1.45.32,1.66,1.32,2.14,10.12-.1,19.11-7.17,26.7a28.645,28.645,0,0,1-16.01,8.57,34.8,34.8,0,0,1-17.63-1.02Zm-6.68,46.15c-.04-.1-.08-.2-.11-.3.35-.16.7-.32,1.06-.47,2.5-1.03,4.98-2.11,7.5-3.07,4.51-1.72,6.47-5.06,6.46-9.77-.02-8.33,0-16.66,0-24.99V83.3c1.57,0,3.05-.04,4.53.05.21.01.54.65.55,1.01.04,2.91.02,5.83.02,8.74,0,5.25,0,10.49.03,15.74a18.052,18.052,0,0,0,.31,3.6,8.148,8.148,0,0,0,4.79,6.02c2.95,1.34,5.98,2.51,8.97,3.75a2.677,2.677,0,0,1,1.07.7H17.38Zm35.75-8.7v3.62c-.44-.18-.84-.34-1.25-.5-2.27-.94-4.54-1.86-6.79-2.82a4.24,4.24,0,0,1-2.81-4.27c.01-8.95-.04-17.9-.02-26.85a1.209,1.209,0,0,1,.66-.95,45.752,45.752,0,0,0,11.65-4.67,3.113,3.113,0,0,1,.71-.11C55,79,54.82,80.22,54.5,81.4a39.887,39.887,0,0,0-1.4,11.09c.1,7.24.03,14.49.03,21.73Zm68.22-7.78a6.862,6.862,0,0,0-4.03,6.02,7.079,7.079,0,0,0,3.32,6.58c.4.28.83.53,1.22.78-.57,2.2-1.97,3.22-4.48,3.23-4.21.02-8.41,0-12.62,0q-12.12,0-24.24.01a1.647,1.647,0,0,1-1.74-.94,7.263,7.263,0,0,0-12.96.1,1.407,1.407,0,0,1-1.57.86c-.62-.07-1.26,0-1.87-.11-2.97-.49-4.25-2.12-4.25-5.47q-.015-12.315.01-24.62V89.95h8.38c1.87,0,3.75.07,5.62-.03,1.06-.05,1.43.45,1.78,1.31a9.683,9.683,0,0,0,18.05-.44c.25-.6.48-.85,1.14-.85q14.25.03,28.49.02a2.368,2.368,0,0,1,.43.08,7.346,7.346,0,0,1,.1.82q0,7.125.01,14.24a1.234,1.234,0,0,1-.79,1.33Z" fill="#63676a"/></g></g></svg>