<svg xmlns="http://www.w3.org/2000/svg" xmlns:xlink="http://www.w3.org/1999/xlink" width="130" height="130" viewBox="0 0 130 130"><defs><clipPath id="b"><rect width="130" height="130"/></clipPath></defs><g id="a" clip-path="url(#b)"><g transform="translate(0.411 6.767)"><path d="M31.081,68.073a23.769,23.769,0,0,1-14.881-6.6,4.761,4.761,0,0,1-.916-1.2,2.035,2.035,0,0,1,.356-2.463,1.938,1.938,0,0,1,2.412-.56,6.875,6.875,0,0,1,1.6,1.018A19.436,19.436,0,0,0,31.723,63.32a2.367,2.367,0,0,1,.377.041c2.025.254,3.094,1.181,3,2.606s-1.272,2.188-4.02,2.117Z" transform="translate(0.268 1.017)" fill="#63676a"/><path d="M15.04,51.771a2.55,2.55,0,0,1-2.372,2.219,2.4,2.4,0,0,1-2.178-2.372,2.239,2.239,0,0,1,2.453-2.158,2.359,2.359,0,0,1,2.087,2.31Z" transform="translate(0.187 0.882)" fill="#63676a"/><path d="M128.471,54.281a41.309,41.309,0,0,0-.071-15.552,14.807,14.807,0,0,0-.305-1.455c-2.229-8.3-4.4-16.6-6.606-24.906q-1.313-4.962-2.646-9.934A2.837,2.837,0,0,0,116.063.082c-.55-.031-1.1-.081-1.649-.081Q95.59,0,76.755,0c-2.87,0-3.674.6-4.407,3.349q-3.588,13.42-7.135,26.861c-.193.733-.427,1.466-.631,2.188a2.089,2.089,0,0,1-.651-1.059Q60.25,17.476,56.581,3.613C55.747.478,55.136.01,51.9,0H14.117C11.2,0,10.484.56,9.741,3.359,7.389,12.234,5.008,21.1,2.687,29.985,1.74,33.619.57,37.222.254,40.968l-.031-.051A66.264,66.264,0,0,0,.417,53.436v.02a13.09,13.09,0,0,0,.651,3.42c3.97,11.318,11.613,18.779,23.125,22.209A1.729,1.729,0,0,1,25.7,81.009c-.041,5.639,0,11.278.01,16.916a5.043,5.043,0,0,1-3.522,5.16c-2.962,1.14-5.883,2.382-8.814,3.613a16.32,16.32,0,0,0-2.494,1.252,4.533,4.533,0,0,0,1.822,8.3,13.9,13.9,0,0,0,2.148.183q18.2.031,36.387.031a12.1,12.1,0,0,0,2.646-.265,4.517,4.517,0,0,0,3.328-5.863,5.568,5.568,0,0,0-3.5-3.277c-3.043-1.272-6.066-2.616-9.15-3.776a5.4,5.4,0,0,1-3.878-5.8c.122-5.425.081-10.86,0-16.285A1.827,1.827,0,0,1,42.3,79.035,32.661,32.661,0,0,0,62.464,62.872c.631-1.13,1.232-2.27,1.842-3.41.234.132.336.153.366.214.305.56.621,1.109.9,1.679a33.7,33.7,0,0,0,7.8,10.423,32.07,32.07,0,0,0,13.354,7.328c.794.214,1.527.407,1.517,1.517q-.076,8.962-.051,17.934a4.209,4.209,0,0,1-2.83,4.234c-3.288,1.364-6.585,2.7-9.832,4.132a10.661,10.661,0,0,0-2.952,1.914,3.94,3.94,0,0,0-.855,4.468,4.164,4.164,0,0,0,3.389,2.921,16.591,16.591,0,0,0,2.657.2q18.061.046,36.133.041a12.34,12.34,0,0,0,2.524-.244,4.372,4.372,0,0,0,2.942-6.84,7.108,7.108,0,0,0-2.85-2.2c-3.237-1.466-6.524-2.819-9.842-4.1-2.443-.947-3.41-2.616-3.369-5.191q.122-8.336-.02-16.662a1.833,1.833,0,0,1,1.6-2.178c10.881-3.318,18.24-10.209,22.28-20.469.254-.01.6-.855,1.069-2.931.031-.163.061-.316.092-.468.071-.3.122-.58.173-.875ZM41.639,107.137c2.565,1.1,5.15,2.158,7.715,3.247a4.365,4.365,0,0,1,1.629,1.089H15.033c-.02-.092-.031-.183-.051-.275.3-.132.58-.275.875-.4,2.891-1.2,5.791-2.382,8.672-3.6,4.1-1.74,5.975-4.947,6-9.3.031-5.344.051-10.677,0-16.021-.01-1.232.417-1.537,1.547-1.435,1.16.1,2.341.02,3.766.02v7.786c.01,3.43.071,6.86.061,10.3a8.686,8.686,0,0,0,5.73,8.6Zm19.2-52.449C57.4,65.671,50,72.694,38.779,74.892A28.348,28.348,0,0,1,5.69,55.319a60.8,60.8,0,0,1-1.333-7.084c-.163-.906.458-1.3,1.1-1.649a23.192,23.192,0,0,1,12.55-3,38.259,38.259,0,0,1,14.759,4.305,39.142,39.142,0,0,0,15.125,4.417,27.9,27.9,0,0,0,12.082-1.873,11.947,11.947,0,0,1,1.211-.377c.112-.031.244.031.621.1-.316,1.527-.509,3.074-.967,4.529Zm.132-9.934a24.625,24.625,0,0,1-15.033,2.473c-5.313-.672-10-3.1-14.779-5.211a37.592,37.592,0,0,0-14.372-3.288,26.233,26.233,0,0,0-10.85,2.3,5.993,5.993,0,0,1-.712.265c-.071.02-.163-.031-.478-.092.142-.672.234-1.293.387-1.883,2.942-11.074,5.914-22.148,8.825-33.232.234-.875.55-1.15,1.435-1.15q17.542.046,35.095.01c1.15,0,1.629.326,1.914,1.445,2.83,10.891,5.72,21.761,8.57,32.642.356,1.344.489,2.748.8,4.112a1.284,1.284,0,0,1-.814,1.618Zm6.585-4.641Q72.1,23,76.643,5.9a1.073,1.073,0,0,1,1.252-.916q17.8,0,35.614-.02c.7,0,1.171.112,1.384.936q4.458,17.252,8.977,34.5c.1.407.132.835.214,1.252.529,2.718.417,2.891-2.148,3.939-7.736,3.165-15.227,2.1-22.667-1.109a113.367,113.367,0,0,0-11.685-4.57,25.962,25.962,0,0,0-14.433-.448c-1.873.5-3.685,1.211-5.751,1.893a9.032,9.032,0,0,1,.153-1.232Zm37.059,67.218c2.687,1.13,5.395,2.239,8.082,3.359a1.991,1.991,0,0,1,1,.8H77.783a2.484,2.484,0,0,0-.1-.244c.377-.193.743-.417,1.14-.58,2.7-1.12,5.395-2.219,8.082-3.349,2.972-1.252,5.171-3.237,5.863-6.514a19.085,19.085,0,0,0,.356-3.654c.041-5.171.051-10.341,0-15.512,0-1.038.275-1.313,1.3-1.2,1.242.122,2.514.031,3.888.031v1.72c.051,5.639.041,11.267.173,16.906.1,4.122,2.453,6.708,6.117,8.244Zm14.911-44.276a27.822,27.822,0,0,1-18.138,11.9c-16.9,3.084-31.614-7.837-34.128-23.929-.051-.336-.051-.672-.081-1.018-.265-3.023-.2-3.053,2.575-4.305a24.459,24.459,0,0,1,16.01-1.374c4.224.977,8.021,2.9,11.929,4.631a34.445,34.445,0,0,0,15.491,3.369,26.477,26.477,0,0,0,9.171-1.791,10.025,10.025,0,0,1,1.323-.427,3.625,3.625,0,0,1,.682,0,28.274,28.274,0,0,1-4.835,12.957Z" fill="#63676a"/></g></g></svg>