<svg xmlns="http://www.w3.org/2000/svg" xmlns:xlink="http://www.w3.org/1999/xlink" width="130" height="130" viewBox="0 0 130 130"><defs><clipPath id="b"><rect width="130" height="130"/></clipPath></defs><g id="a" clip-path="url(#b)"><g transform="translate(0.347 0.591)"><path d="M21.413,43.827A2.245,2.245,0,0,1,19.23,41.5a2.163,2.163,0,0,1,2.213-2.132,2.229,2.229,0,1,1-.03,4.457Z" transform="translate(0.293 0.601)" fill="#63676a"/><path d="M128.534,66.734a15.612,15.612,0,0,0-3.848-7.34c-.294-.335-.558-.7-.883-1.117.6-.406,1.086-.731,1.564-1.066.518-.355,1.066-.69,1.564-1.086,1.6-1.259,1.807-2.163.761-3.929a38.34,38.34,0,0,0-7.452-9.4A14.933,14.933,0,0,0,103.5,40.307c-2.386,1.147-2.366,1.137-3.289-1.36a12.99,12.99,0,0,0-9.777-8.5c-5.279-1.249-9.676.345-13.249,4.3-1.086,1.208-.975,1.2-2.264.122-1.614-1.34-3.269-2.63-5-3.817-.792-.548-2.244-.569-2.589-1.239-.366-.721.2-1.929.376-2.914A28.861,28.861,0,0,1,78.288,9.259a6.626,6.626,0,0,1,1.036-.528c-.1.883-.162,1.5-.234,2.112-.68,6.021.995,11.148,5.868,14.945,6.985,5.442,19.453,3.716,21.615-7.625a10.17,10.17,0,0,0-3.279-9.747,9.636,9.636,0,0,0-10.1-2.274A8.542,8.542,0,0,0,87.3,14.691a7.552,7.552,0,0,0,5.818,7.259,5.426,5.426,0,0,0,4.295-.457,2.051,2.051,0,0,0,1.168-2.315c-.254-1.086-.782-1.858-2.031-1.888-.629-.02-1.269-.091-1.9-.142a2.5,2.5,0,0,1-2.518-2.234,3.776,3.776,0,0,1,3.279-4.457,5.812,5.812,0,0,1,6.477,7.107c-.711,3.645-3.005,5.726-6.853,6.2a9.366,9.366,0,0,1-9.391-3.98c-3.137-4.427-2.386-10.975.66-14.579a11.142,11.142,0,0,0,1.4-2.1A1.9,1.9,0,0,0,86.7.284a3.465,3.465,0,0,0-3.259.345,38.573,38.573,0,0,0-9.818,6.427c-2.66,2.518-2.69,2.467-6.285,1.8a23.566,23.566,0,0,0-17.371,3.259c-.924.579-1.838,1.147-2.9,1.817-.264-.64-.487-1.076-.629-1.543-.325-1.005-.528-2.051-.924-3.026C43.575,4.609,40.184,1.259,35.057.6,31.25.112,27.311.548,23.432.67a14.769,14.769,0,0,0-3.34.67A2.414,2.414,0,0,0,18,4.193,15,15,0,0,0,18.427,7.2c.254,1.015-.112,1.218-1.046,1.289C9.462,9.138,4.254,13.737.5,20.316c-.883,1.533-.5,2.558.975,3.584A24.889,24.889,0,0,0,9.178,27.94a9.8,9.8,0,0,1,1.564.741A22.438,22.438,0,0,0,5.634,45.038c.244,3.056.944,6.071,1.411,9.117a3.042,3.042,0,0,0,2.782,2.69c1.909.355,3.807.741,5.726,1.066a1.812,1.812,0,0,1,1.584,1.371,21.041,21.041,0,0,0,1.838,4.274,13.193,13.193,0,0,0,9,6.041c.843.162,1.5.345,1.025,1.564-3.188,8.112,2.427,16.478,9.574,17.97.731.152,1.442.4,2.254.619-.162.477-.274.833-.386,1.188-2.122,6.264-.315,11.93,5,15.95a14.263,14.263,0,0,0,5.432,2.295c.995.244,1.381.609.954,1.767a12.878,12.878,0,0,0,1.025,11.462c2.031,3.411,4.812,5.939,8.965,6.3a50.41,50.41,0,0,0,6.315,0,5.994,5.994,0,0,0,2.061-.558,13.836,13.836,0,0,0,7.9-15.991c-.2-.833-.863-2-.548-2.427.467-.609,1.635-.69,2.518-.965,5.351-1.665,8.366-5.452,9.665-10.742a18.368,18.368,0,0,0,.213-3.046c.66.355,1.178.589,1.665.9q2.284,1.492,4.538,3.026a2.88,2.88,0,0,0,3.533-.01c1.6-1.1,3.31-2.061,4.843-3.249,4.812-3.726,8.7-8.143,10.092-14.3.234-1.025.447-2.051.7-3.188.467.213.893.376,1.289.6a26.661,26.661,0,0,0,8.528,2.711c1.959.345,2.924-.355,3.3-2.366.03-.142.03-.294.051-.447a24.492,24.492,0,0,0,.122-11.95ZM99.02,47.271a8.948,8.948,0,0,1,8.813,9.087,8.92,8.92,0,1,1-8.823-9.087ZM87.506,34.8a8.752,8.752,0,0,1,8.63,6.944c.071.325-.274,1.025-.528,1.076-2.985.6-5.137,2.487-7.066,4.64-.833.934-1.391.8-2.122-.02a13.951,13.951,0,0,0-7.2-4.691,1.15,1.15,0,0,1-.518-.965,8.877,8.877,0,0,1,8.782-6.975ZM76,47.261a8.828,8.828,0,0,1,8.965,8.762c-.112,5.513-3.939,9.016-8.914,9.056A8.941,8.941,0,0,1,67.13,56.1,8.837,8.837,0,0,1,76,47.261ZM64.551,67.1a8.82,8.82,0,0,1,8.985,8.965,8.9,8.9,0,0,1-17.808-.112A8.746,8.746,0,0,1,64.551,67.1ZM46.276,61.627c4.833-3.493,8.082-8.061,9.006-14.051,3.411.457,6.366,3.878,6.823,7.777a8.952,8.952,0,0,1-5.513,9.107,8.8,8.8,0,0,1-10.305-2.833ZM73.5,42.56c-.65.213-1.239.406-1.838.589a13.618,13.618,0,0,0-5.9,4.2c-.8.873-1.33.893-2.223.01a3.3,3.3,0,0,1-1.066-3.98,40.223,40.223,0,0,0,1.381-7.422c.152-1.117.477-1.371,1.594-1.178,4.5.782,7.026,3.127,8.051,7.777ZM67.312,13.828c-1.574,3.97-3.147,7.929-4.812,12.133C60.216,21,56.236,18.346,51.078,17.25c2.487-3.269,12.752-5.239,16.234-3.421ZM12.518,52.53a1.36,1.36,0,0,1-1.289-1.269A30.9,30.9,0,0,1,11.1,38.073a12.455,12.455,0,0,1,7.026-8.924,5.144,5.144,0,0,0,1.838-1.076,3.192,3.192,0,0,0,.873-2.173,2.532,2.532,0,0,0-1.584-1.645,14.765,14.765,0,0,0-4.02-.223c-3.584.142-6.66-1.239-9.665-2.944,3.076-5.137,8.071-8.264,13.94-7.736.965.091,1.949.081,2.9.254a2.258,2.258,0,0,0,2.244-3.3,20.878,20.878,0,0,1-1.523-3.736c-.264-.67-.152-1.086.68-1.259a25.18,25.18,0,0,1,9.818-.355c4.833.934,7.95,4.66,8.478,10.061a3.007,3.007,0,0,0,.061.751c.8,2.193-.548,3.421-2.071,4.508a2.638,2.638,0,0,1-1.543.355c-3.421-.183-6.833-.437-10.254-.619a8.585,8.585,0,0,0-1.756.173,2.113,2.113,0,0,0-1.9,2.071,2.048,2.048,0,0,0,1.594,2.173,19.194,19.194,0,0,0,3.239.5c1.432.142,2.863.193,4.295.3a6.824,6.824,0,0,1,1.157.345c-.7.711-1.239,1.279-1.787,1.827C31.422,29.1,29.7,30.773,28,32.489c-.467.477-1.076,1.036-1.157,1.614a3.536,3.536,0,0,0,.426,2.416,2.528,2.528,0,0,0,2.1.548,3.975,3.975,0,0,0,1.878-1.2c2.122-2.061,4.193-4.183,6.285-6.264.467-.467.975-.883,1.746-1.584.183,2.6.345,4.782.5,6.965s1.056,3.35,2.569,3.31c1.421-.041,2.345-1.411,2.234-3.543-.173-3.462-.4-6.924-.64-10.376a2.607,2.607,0,0,1,2.883-2.822c1.218.152,2.447.213,3.635.467,4.883,1.036,7.818,4.264,8.62,9.249.487,3-.112,5.889-.569,8.8-.122.761-.64.843-1.218.629-1.228-.447-2.457-.893-3.645-1.432-2.031-.914-3.543.081-3.482,2.315.051,1.939.223,3.889.1,5.818a12.636,12.636,0,0,1-4.142,8.183c-.975.975-2.081,1.827-3.462,3.015-.944-2.244-1.9-4.244-2.609-6.325a12,12,0,0,1-.345-3.381c-.051-1.228.051-2.457.02-3.675a2.38,2.38,0,0,0-1.777-2.366c-1.117-.335-1.848.365-2.437,1.188a8,8,0,0,0-.741,1.32c-2.132,4.731-6.01,7.016-10.945,7.777-3.817.589-7.584-.01-11.341-.619ZM29.1,65.039a8.794,8.794,0,0,1-7.34-6.7,24.162,24.162,0,0,0,13.361-5.279c.173.345.325.619.447.9.782,1.817,1.6,3.614,2.3,5.452a2.3,2.3,0,0,1-.03,1.706c-1.523,2.741-5.411,4.437-8.742,3.909ZM41.778,84.9A8.909,8.909,0,1,1,50.7,76.105,8.832,8.832,0,0,1,41.778,84.9Zm11.5,19.788a8.851,8.851,0,1,1,0,.01Zm11.361,19.808a8.9,8.9,0,0,1-8.884-8.985,8.92,8.92,0,1,1,8.884,8.985ZM76.2,104.7a9.1,9.1,0,0,1-9.036-8.9,8.93,8.93,0,1,1,9.026,8.9ZM87.445,84.9a8.9,8.9,0,1,0,0-.01Zm36.824-8.437c-3.7-.741-6.934-2.1-9.462-4.863-.741-.812-1.513-1.594-2.284-2.376a1.973,1.973,0,0,0-2.558-.183,1.879,1.879,0,0,0-1.036,2.223c.152.782.447,1.533.67,2.3,1.472,5.188.132,9.737-3.168,13.848A34.5,34.5,0,0,1,98.4,94.147a1.1,1.1,0,0,1-.995.081c-1.97-1.452-3.9-2.965-5.838-4.467-.142-.112-.193-.335-.376-.68a12.868,12.868,0,0,0,7.442-5.229,13.271,13.271,0,0,0,1.756-12.64c-.355-.975-.173-1.371.812-1.614a14.966,14.966,0,0,0,5.665-2.376c7.574-5.645,7.787-15.93.4-21.849-.386-.3-.761-.629-1.259-1.046,3.31-1.025,6.335-1.086,9.229.619,3.35,1.97,5.483,5.046,7.716,8.386-1.4.66-2.619,1.32-3.9,1.807-1.1.416-2.213.761-2.437,2.1-.234,1.36.741,2.081,1.685,2.741,5.8,4.061,6.934,9.8,5.99,16.468Z" transform="translate(0 0)" fill="#63676a"/></g></g></svg>