<svg xmlns="http://www.w3.org/2000/svg" xmlns:xlink="http://www.w3.org/1999/xlink" width="130" height="130" viewBox="0 0 130 130"><defs><clipPath id="b"><rect width="130" height="130"/></clipPath></defs><g id="a" clip-path="url(#b)"><g transform="translate(41.02 1)"><path d="M6.769,129.046c-.344-.081-.607-.172-.87-.212a6.25,6.25,0,0,1-5.383-4.8,19.029,19.029,0,0,1-.5-4Q-.04,104.865,0,89.688A63.825,63.825,0,0,1,7.447,59.1,52.759,52.759,0,0,0,13.73,40.689a88.242,88.242,0,0,0,.648-9.946c.091-7.669.02-15.348.03-23.018a17.439,17.439,0,0,1,.121-2.519A6.781,6.781,0,0,1,18.065.612,9.168,9.168,0,0,1,19.3.454C19.055.282,30.009.421,30.383.542a4.518,4.518,0,0,1,3.4,3.835,30.419,30.419,0,0,1,.263,4.4c.02,7.629,0,15.257,0,22.886A54.747,54.747,0,0,0,39.54,56.077c2.357,4.786,4.877,9.521,6.293,14.711,1.285,4.715,2.469,9.43,2.408,14.387-.04,3.41.182,6.819.2,10.229a4.831,4.831,0,0,1-.536,2.54,2.959,2.959,0,0,1-2.064,1.285A2.713,2.713,0,0,1,44,97.833a6.41,6.41,0,0,1-.5-2.691c-.121-4.29-.03-8.6-.293-12.89a48.144,48.144,0,0,0-4.421-16.876c-2.135-4.715-4.523-9.328-6.3-14.175a79.02,79.02,0,0,1-2.661-11.139c-.253-1.214-.556-1.8-1.973-1.72a70.506,70.506,0,0,1-7.457,0c-1.275-.061-1.568.526-1.7,1.568a58.006,58.006,0,0,1-4.381,15.753c-1.153,2.62-2.459,5.17-3.754,7.72A53.512,53.512,0,0,0,4.958,87.766c-.02,10.957,0,21.915,0,32.882,0,2.782,1.042,3.824,3.824,3.824H39.894c2.56,0,3.561-1.032,3.612-3.612a39.821,39.821,0,0,1,.233-4.4,2.3,2.3,0,0,1,2.287-2.125c1.133,0,1.953.769,2.216,2.185a17.018,17.018,0,0,1-.374,7.882,6.253,6.253,0,0,1-5.969,4.472C42.231,129.137,6.445,129.248,6.769,129.046ZM19.385,17.216c0,3.936-.02,7.76,0,11.575,0,1.457.121,2.914.182,4.371,1.457.081,2.9.192,4.361.223,1.71.04,3.41,0,5.211,0V17.206H19.385Zm.02-5.13h9.733V5.115H19.406Z" transform="translate(-0.282 -0.748)" fill="#63676a"/><path d="M8.33,85.71c.08-1.07.09-1.78.19-2.48a6.182,6.182,0,0,1,8.18-5.36,5.3,5.3,0,0,1,3.73,3.39,11,11,0,0,1,0,7.81c-.91,2.54-2.71,3.63-5.78,3.62-2.86,0-4.8-1.21-5.63-3.67A25.92,25.92,0,0,1,8.33,85.71Zm8.11-.47h.16c-.1-.98-.16-1.97-.31-2.95a1.48,1.48,0,0,0-1.55-1.32,1.464,1.464,0,0,0-1.62,1.23,9.843,9.843,0,0,0,.04,5.86,1.549,1.549,0,0,0,1.77,1.22,1.552,1.552,0,0,0,1.5-1.54c.07-.82.01-1.65.01-2.48Z" fill="#63676a"/><path d="M27.8,100.21c.11-1.16.1-2,.27-2.81a5.513,5.513,0,0,1,5.05-4.59c3.47-.26,5.6.93,6.65,3.78a11.088,11.088,0,0,1-.15,7.92,5.734,5.734,0,0,1-6.19,3.41c-3.11-.39-5.05-2.12-5.43-4.94-.14-1.03-.16-2.07-.21-2.78Zm4.38.13h.03a22.757,22.757,0,0,0,.02,2.48,1.79,1.79,0,0,0,1.81,1.71c1.13.07,1.6-.73,1.67-1.63.12-1.64.07-3.29.04-4.94-.01-1.01-.38-1.79-1.57-1.82a1.937,1.937,0,0,0-1.98,1.84A20.628,20.628,0,0,0,32.18,100.34Z" fill="#63676a"/><path d="M34.02,77.6C31,83.64,28.14,89.37,25.28,95.09c-1.97,3.94-3.94,7.88-5.87,11.85a1.44,1.44,0,0,1-1.6,1.03c-.9-.08-1.82-.02-2.91-.02a12.855,12.855,0,0,1,.49-1.24C20,97.58,24.65,88.47,29.2,79.31c.66-1.32,1.38-1.95,2.84-1.72A14.154,14.154,0,0,0,34.02,77.6Z" fill="#63676a"/><path d="M47.69,106.37a2.394,2.394,0,0,1-2.21,2.28,2.316,2.316,0,0,1-2.22-2.11,2.4,2.4,0,0,1,2.2-2.43,2.444,2.444,0,0,1,2.24,2.26Z" fill="#63676a"/></g></g></svg>