<svg xmlns="http://www.w3.org/2000/svg" xmlns:xlink="http://www.w3.org/1999/xlink" width="130" height="130" viewBox="0 0 130 130"><defs><clipPath id="b"><rect width="130" height="130"/></clipPath></defs><g id="a" clip-path="url(#b)"><g transform="translate(18.977 6.652)"><path d="M13.81,95.9a36.332,36.332,0,0,0,9.69,7.07,41.2,41.2,0,0,0,23.96,4.3c13.84-1.5,23.62-9.14,30.69-20.68A58.286,58.286,0,0,0,86,62.85c.86-7.11.46-14.2-.16-21.31-.98-11.29-4.07-22.04-7.89-32.63-.02-.06-.11-.1-.29-.25-.39.47-.76.94-1.17,1.39q-4.965,5.52-9.95,11.02a7.18,7.18,0,0,1-1.34,1.12,2.364,2.364,0,0,1-3.42-.5,2.383,2.383,0,0,1,.15-3.38c1.82-1.89,3.87-3.58,5.52-5.6,2.83-3.48,5.42-7.16,8.13-10.74A5.872,5.872,0,0,1,77.2.3c1.35-.74,2.84-.11,3.53,1.54,1.23,2.91,2.39,5.85,3.45,8.82a136.525,136.525,0,0,1,6.83,27.42c1.97,14.47,1.43,28.75-4.07,42.51-3.63,9.09-8.98,16.99-16.79,23.04a43.6,43.6,0,0,1-24.37,9.23c-13.12.84-24.55-3.34-34.45-11.9a7.218,7.218,0,0,0-.7-.47,46.929,46.929,0,0,0-2.42,4.8c-1.06,2.88-1.9,5.84-2.83,8.76-.32,1.02-.45,2.17-1.73,2.53a2.726,2.726,0,0,1-3.51-3.19A43.591,43.591,0,0,1,5.96,97.96a2.763,2.763,0,0,0-.11-3.54A32.225,32.225,0,0,1,0,76.43c-.18-9.32,3.03-17.45,8.94-24.55,5.38-6.45,12.23-10.98,19.67-14.7q10.38-5.19,20.75-10.39a10.225,10.225,0,0,1,1.48-.65,2.394,2.394,0,0,1,2.94,1.24,2.3,2.3,0,0,1-.6,3.22,24.457,24.457,0,0,1-3.02,1.75c-6.5,3.26-13.03,6.49-19.53,9.76-6.6,3.31-12.78,7.23-17.52,13.01C5.47,64.43,3.22,74.8,7.44,86.28a37,37,0,0,0,2.25,4.44c.33.62.75.91,1.33.2,4.5-5.52,10.18-9.68,15.92-13.77,6.44-4.59,12.97-9.06,19.37-13.71A62.119,62.119,0,0,0,57.38,52.83a4.393,4.393,0,0,1,2.09-1.39A2.284,2.284,0,0,1,62,52.65a2.4,2.4,0,0,1-.31,3.01c-2.19,2.51-4.35,5.06-6.72,7.38C49.29,68.6,42.62,72.9,36.08,77.35c-3.99,2.71-7.96,5.47-11.84,8.34A54.3,54.3,0,0,0,13.82,95.88Z" fill="#63676a"/></g></g></svg>