<svg xmlns="http://www.w3.org/2000/svg" xmlns:xlink="http://www.w3.org/1999/xlink" width="130" height="130" viewBox="0 0 130 130"><defs><clipPath id="b"><rect width="130" height="130"/></clipPath></defs><g id="a" clip-path="url(#b)"><g transform="translate(0.49 0.736)"><g transform="translate(0.01 -0.009)"><path d="M63.987,122.84a2.315,2.315,0,0,0-2.217,2.268,2.419,2.419,0,0,0,2.348,2.167,2.278,2.278,0,0,0,2.126-2.227,2.236,2.236,0,0,0-2.258-2.207Z" transform="translate(0.472 0.969)" fill="#63676a"/><path d="M64.037,29.585a2.133,2.133,0,0,0,2.278-2.126,2.3,2.3,0,0,0-2.147-2.328A2.356,2.356,0,0,0,61.8,27.256a2.252,2.252,0,0,0,2.247,2.338Z" transform="translate(0.473 0.206)" fill="#63676a"/><path d="M115.717,13.092c-1.663-.978-3.306-2-5.009-2.892a2.442,2.442,0,0,1-1.4-2.177,8.3,8.3,0,0,0-4.122-6.813,11.321,11.321,0,0,0-3.195-.867c-.363-.081-.766.05-1.129-.02A6.8,6.8,0,0,0,94.311,2.63a2.552,2.552,0,0,1-2,.544c-3.86-.675-7.69-1.562-11.55-2.167l.071-.02C70.617-.625,58.141.081,51.922.6q-.68.045-1.361.121c-1.6.151-2.54.262-2.54.262l.071.04c-2.056.3-4.092.7-6.128,1.169-1.633.383-3.3.595-4.918,1a2.524,2.524,0,0,1-2.6-.716C31.635-.091,26.636-.645,23.684,1.26a8.178,8.178,0,0,0-3.951,6.4,3.252,3.252,0,0,1-1.875,2.822C13.414,13,8.889,15.4,5.069,18.9,3.2,20.61.927,21.92.01,24.48V81.169c.111,0,.312-.03.333.02,1.361,2.751,3.91,4.334,6.188,6.138A76.539,76.539,0,0,0,24.147,97.456a1.527,1.527,0,0,1,1.119,1.673c-.05,3.558-.02,7.125-.02,10.743-1.431.1-2.761.181-4.072.3-7.166.7-13.716,7.357-14.089,14.271-.081,1.592-.04,3.064,1.844,3.658.091.03.1.282.151.433H55.944a3.6,3.6,0,0,0,.816-.736c.383-.645,1.028-1.431.9-2.016A3.181,3.181,0,0,0,56.1,123.9a5.886,5.886,0,0,0-2.58-.353q-19.894-.03-39.8-.01H12.074a11.071,11.071,0,0,1,5.14-7.085,12.73,12.73,0,0,1,6.773-1.572q26.893.03,53.777,0c8.687,0,17.375-.02,26.072,0a35.444,35.444,0,0,1,4.263.242c4.172.514,8.244,4.434,8.708,8.4h-1.5q-19.2,0-38.408.01a20.756,20.756,0,0,0-2.62.242,2.233,2.233,0,0,0-2.026,1.955,1.99,1.99,0,0,0,1.361,2.167,3.509,3.509,0,0,1,.736.615h45.6c.04-.071.06-.191.121-.212,2.358-1.008,2.1-2.953,1.723-4.888A15.987,15.987,0,0,0,108.733,110.3a45.971,45.971,0,0,0-4.878-.393c-.03-.373-.081-.726-.081-1.088,0-3.225.02-6.46-.02-9.685a1.51,1.51,0,0,1,1.068-1.683,73.117,73.117,0,0,0,20.8-12.749,46.92,46.92,0,0,0,3.386-3.8V23.976c-3.588-4.646-8.284-7.952-13.283-10.884ZM19.471,69.2a6.688,6.688,0,0,1-.181.9c-4.636-1.633-9.131-3.2-13.605-4.817a1.21,1.21,0,0,1-.655-.877C4.979,61.305,5,58.211,5,54.936H18.241c.675,0,1.219-.02,1.219.947-.02,4.444,0,8.889.01,13.333ZM5.019,25.679a1.725,1.725,0,0,1,.474-1.169,69.233,69.233,0,0,1,12.386-8.778c.423-.232.867-.433,1.552-.776v9.232c0,1.683.071,3.356,0,5.029a1.412,1.412,0,0,1-.675,1.088c-4.334,1.421-8.687,2.771-13.041,4.142-.151.05-.312.071-.645.151-.03-.665-.081-1.27-.081-1.864,0-2.348-.03-4.7.02-7.045Zm.816,13.837C9.927,38.166,14,36.755,18.08,35.384a7.44,7.44,0,0,1,1.29-.191V49.907H5.1A8.234,8.234,0,0,1,5,48.99c0-2.731.01-5.452-.02-8.183,0-.665.131-1.058.847-1.3ZM19.289,90.209c-3.457-2.318-6.7-4.485-9.947-6.672-.1-.071-.191-.161-.292-.242-1.33-1.149-3.165-2.056-3.84-3.5S5.019,76.352,5,74.588c-.01-1.381,0-2.751,0-4.364,2.62.917,5.009,1.794,7.428,2.57,1.985.635,4.011,1.169,6.037,1.693a1.157,1.157,0,0,1,1.028,1.3c-.02,4.4,0,8.8,0,13.2A10.936,10.936,0,0,1,19.289,90.209ZM38.408,7.7A100.473,100.473,0,0,1,60.932,4.817c5.654.03,11.338.05,16.951.574,4.434.423,8.808,1.6,13.192,2.5a1.14,1.14,0,0,1,.645.867c.04,5.956.03,11.912.03,18.06-1.451-.111-2.812-.181-4.172-.312-2.792-.272-5.583-.595-8.385-.836a5.429,5.429,0,0,0-1.975.181,2.014,2.014,0,0,0-1.592,2.016A1.956,1.956,0,0,0,77.047,30a31.332,31.332,0,0,0,4.434.746c3.376.353,6.752.635,10.189.957V49.957H37.339V31.736c1.683-.151,3.386-.292,5.079-.454,3.376-.323,6.773-.595,10.139-1.018,2.036-.252,2.953-1.643,2.278-3.195A2.611,2.611,0,0,0,52.013,25.6c-2.217.151-4.424.383-6.641.585q-3.507.317-7.024.6c-.323.03-.645,0-1.048,0-.03-.464-.081-.836-.081-1.2,0-5.462.02-10.915-.02-16.377,0-.907.222-1.28,1.179-1.492ZM91.65,55.017v18.12a222.971,222.971,0,0,1-54.361.01V55.007H91.65ZM25.669,93.051c-.756-.353-1.361-.6-1.361-1.663q.045-20.65.02-41.29h.03V10.572A14.127,14.127,0,0,1,24.6,7.579a3.675,3.675,0,0,1,3.658-2.872A3.925,3.925,0,0,1,32,7.539a8.207,8.207,0,0,1,.262,2.106q.015,39.35.03,78.68a1.714,1.714,0,0,1-1.038,1.733,22.5,22.5,0,0,0-3.588,2.661,1.623,1.623,0,0,1-2.016.333Zm13.545,16.941c-2.761,0-5.513.02-8.264-.03-.252,0-.716-.4-.716-.6.02-3.759-.081-7.538.232-11.277a4.239,4.239,0,0,1,4.394-3.991,4.3,4.3,0,0,1,4.293,3.991c.252,3.9.071,7.831.071,11.922Zm45.432-.595c0,.191-.585.514-.9.524-1.925.06-3.86.05-5.785.05-10.743.01-21.487,0-32.23.05-1.189,0-1.512-.373-1.451-1.5.091-1.623.02-3.255.02-5.17a108.4,108.4,0,0,0,40.383-.02c0,2.147.03,4.1-.04,6.057ZM84.9,97.587a1.751,1.751,0,0,1-1.2,1.129c-4.152.514-8.314,1.179-12.487,1.31-5.855.171-11.741.03-17.6-.2-2.792-.111-5.563-.746-8.345-1.1-.836-.1-1.109-.544-1.219-1.3a9.3,9.3,0,0,0-5.876-7.569c-.373-.161-.877-.645-.877-.988-.06-3.517-.04-7.045-.04-10.915a210.374,210.374,0,0,0,54.5,0c0,3.89.02,7.407-.03,10.925,0,.333-.443.8-.786.947A9.626,9.626,0,0,0,84.9,97.587Zm13.918,6.571c0,1.592-.03,3.185.01,4.777.02.746-.212,1.038-1,1.028q-3.522-.045-7.045.05c-.877.02-1.159-.272-1.149-1.149.04-3.275,0-6.541.03-9.816a4.888,4.888,0,0,1,3.154-4.706,4.152,4.152,0,0,1,4.807,1.522A9.24,9.24,0,0,1,98.745,99.5a39.665,39.665,0,0,1,.04,4.646h.03Zm5.865-16.76c0,1.381,0,2.771.03,4.152.03,1.149-.867,1.25-1.633,1.572-.746.322-1.189.06-1.774-.423a30.837,30.837,0,0,0-3.8-2.782,1.363,1.363,0,0,1-.806-1.35q.015-39.728.02-79.456c0-2.771,1.844-4.555,4.384-4.354a3.515,3.515,0,0,1,3.487,3.457c.121,4.485.141,8.98.151,13.464.02,9.574,0,19.138,0,28.713h-.071V87.408Zm19.3-8.2a1.974,1.974,0,0,1-.544,1.28,74.843,74.843,0,0,1-13.354,9.332,2.042,2.042,0,0,1-.393.121c-.111-.171-.191-.242-.191-.312,0-4.737,0-9.463.06-14.2a1.043,1.043,0,0,1,.595-.776c4.545-1.411,9.09-2.782,13.857-4.223v2c0,2.268.03,4.525-.02,6.783ZM110.426,54.926c4.4.03,8.808.03,13.212.04a1.409,1.409,0,0,1,.353.151c0,3.114,0,6.289-.02,9.463a.858.858,0,0,1-.443.645c-4.555,1.623-9.121,3.225-13.978,4.928V56.085c0-.615-.04-1.169.867-1.169Zm-.806-5.019V34.77c4.8,1.7,9.322,3.3,13.837,4.928a.957.957,0,0,1,.524.716c.04,3.134.02,6.279.02,9.494H109.62Zm14.442-21.456a56.2,56.2,0,0,0-.05,6.269c-1.733-.615-3.285-1.23-4.868-1.723-2.832-.887-5.674-1.723-8.526-2.56-.665-.191-1.119-.423-1.119-1.25,0-4.485-.03-8.97-.04-13.454a5.056,5.056,0,0,1,.171-.857c3.89,2.338,7.811,4.414,11.136,7.407a3.313,3.313,0,0,0,.574.494c2.308,1.23,3.023,3.114,2.721,5.674Z" transform="translate(-0.01 0.009)" fill="#63676a"/></g></g></g></svg>