<svg xmlns="http://www.w3.org/2000/svg" xmlns:xlink="http://www.w3.org/1999/xlink" width="21" height="21" viewBox="0 0 21 21"><defs><clipPath id="b"><rect width="21" height="21"/></clipPath></defs><g id="a" clip-path="url(#b)"><path d="M22.837,14.153,17.655,7.076a.74.74,0,0,0-.6-.326H2.99a.74.74,0,0,0-.74.74V20.075a.74.74,0,0,0,.74.74H4.575a2.961,2.961,0,0,0,5.715,0h4.649a2.961,2.961,0,0,0,5.715,0h1.584a.74.74,0,0,0,.74-.74V14.567a.74.74,0,0,0-.141-.415ZM15.575,8.231h1.1l3.8,5.182h-4.9ZM7.432,21.556a1.481,1.481,0,1,1,1.481-1.481A1.481,1.481,0,0,1,7.432,21.556Zm10.364,0a1.481,1.481,0,1,1,1.481-1.481A1.481,1.481,0,0,1,17.8,21.556Zm3.7-2.221h-.844a2.961,2.961,0,0,0-5.715,0H10.29a2.961,2.961,0,0,0-5.715,0H3.731V8.231H14.095v6.663h7.4Z" transform="translate(-2.114 -4.375)" fill="#a7acae"/></g></svg>