<svg xmlns="http://www.w3.org/2000/svg" xmlns:xlink="http://www.w3.org/1999/xlink" width="130" height="130" viewBox="0 0 130 130"><defs><clipPath id="b"><rect width="130" height="130"/></clipPath></defs><g id="a" clip-path="url(#b)"><g transform="translate(3.715 1.239)"><path d="M39.19,127.52c-.91-.49-1.83-.95-2.72-1.47q-14.22-8.19-28.43-16.41a6.627,6.627,0,0,1-1.52-1.27,1.819,1.819,0,0,1-.16-2.41,1.939,1.939,0,0,1,2.22-1,9.5,9.5,0,0,1,2.07.82c3.73,2.12,7.45,4.25,11.14,6.43.9.53,1.35.38,1.85-.53,1.17-2.16,2.39-4.29,3.71-6.36a1.436,1.436,0,0,0-.23-2.14,92.666,92.666,0,0,1-15.07-20.3A99.178,99.178,0,0,1,.47,49.45,29.09,29.09,0,0,1,0,45c-.01-4.12,2.79-7.26,7.08-8.1a7.889,7.889,0,0,1,8.68,5.02c.78,2.01,1.25,4.13,1.91,6.19.3.96.7,1.89,1.06,2.84l.3-.09c.3-1.85.48-3.73.91-5.56,1.57-6.61,4.44-12.65,9.46-17.27,6.4-5.89,13.15-11.39,19.8-17.01,3.94-3.33,8-6.54,11.95-9.86A3.83,3.83,0,0,1,66.1.7c6.21,3.65,12.47,7.2,18.71,10.79q8.655,4.98,17.31,9.97c2.51,1.45,2.79,1.94,2.33,4.7q-1.665,10.095-3.4,20.17c-1.01,5.9-1.96,11.81-3.1,17.69a36.951,36.951,0,0,1-9.4,18.17c-.33.36-.63.76-1.02,1.22.81.48,1.51.92,2.23,1.31a82.729,82.729,0,0,1,27.28,24.14c1.34,1.81,2.77,3.54,4.12,5.34a10.966,10.966,0,0,1,1.22,2.02,2.02,2.02,0,0,1-.77,2.54,1.909,1.909,0,0,1-2.54-.02,13.417,13.417,0,0,1-1.8-1.89c-3.4-4.16-6.66-8.44-10.19-12.48A70.119,70.119,0,0,0,82.82,86.54c-4.77-2.16-9.55-4.31-14.21-6.7C60.94,75.9,54.49,70.3,48.42,64.25c-1.18-1.17-2.3-2.42-4.14-2.58a4.8,4.8,0,0,0-4.79,7.29,11.681,11.681,0,0,0,1.76,2.09c4.61,4.64,9.25,9.26,13.85,13.9,1.82,1.84,3.33,3.87,3.27,6.64a7.465,7.465,0,0,1-4.18,6.77,7.211,7.211,0,0,1-7.6-.25,9.362,9.362,0,0,1-1.6-1.19c-6.16-6.09-12.53-11.99-17.71-18.99A87.971,87.971,0,0,1,12.7,47.78c-.32-1.21-.63-2.42-1.05-3.59a3.641,3.641,0,0,0-2.91-2.6c-2.22-.39-4.31,1.1-4.06,3.33A97.107,97.107,0,0,0,6.41,55.36,94.617,94.617,0,0,0,26.46,95.64c7.41,8.9,16.75,15.12,27.44,19.43,5.75,2.32,11.43,4.79,17.14,7.2a8.661,8.661,0,0,1,1.75.94,2.181,2.181,0,0,1,.09,3.53,6.48,6.48,0,0,0-.71.77H70.92c-.15-.19-.27-.48-.47-.56q-7.53-3.12-15.09-6.21c-8.07-3.3-15.85-7.11-22.72-12.57-.35-.27-.74-.49-1.2-.8-1.34,2.29-2.55,4.51-3.91,6.64-.55.87-.44,1.27.41,1.75,3.07,1.74,6.13,3.52,9.17,5.31a28.99,28.99,0,0,1,3.46,2.21,2.216,2.216,0,0,1-.05,3.63c-.22.18-.4.4-.61.6h-.75ZM24.35,46.03c.11.08.22.16.34.24.34-.09.68-.17,1.01-.28,1.74-.56,3.44-1.27,5.21-1.68,7.64-1.77,15.04-.62,22.24,2.15,2.71,1.04,5.38,2.23,8,3.49,5.17,2.47,10.46,4.49,16.23,5,6.11.54,11.96-.28,17.31-3.47a2.185,2.185,0,0,0,.95-1.32C97,42.3,98.29,34.43,99.63,26.57a1.355,1.355,0,0,0-.8-1.6Q87.415,18.415,76.02,11.81a1.546,1.546,0,0,0-2.08.18c-3.02,2.55-6.09,5.05-9.16,7.54-1.64,1.34-3.28,2.69-5,3.94a2.151,2.151,0,0,1-3-.42,1.988,1.988,0,0,1,.11-2.82,8.848,8.848,0,0,1,1.15-1.14q5.64-4.65,11.31-9.26c.41-.33.89-.57,1.55-.99-2.27-1.3-4.07-2.25-5.78-3.34a1.544,1.544,0,0,0-2.16.16Q50.255,16.175,37.49,26.6c-4.6,3.76-8.56,8.04-10.97,13.55-.83,1.91-1.45,3.91-2.17,5.87ZM94.55,57c-1.77.56-3.14.99-4.51,1.43a32.586,32.586,0,0,1-13.7,1.16,51,51,0,0,1-16.36-5.05c-5.89-2.82-11.79-5.68-18.45-6.17-5.29-.38-10.44.09-15.34,2.43-2,.95-2.77,2-2.63,4.39a33.086,33.086,0,0,0,8.46,20.97c4.81,5.35,10.91,8.79,17.5,11.43.48.19.99.31,1.49.46.06-.09.12-.17.18-.26-.27-.33-.51-.68-.81-.98-3.73-3.75-7.5-7.46-11.2-11.24a29.892,29.892,0,0,1-3.54-4.18,9.184,9.184,0,0,1,.42-10.64,9.424,9.424,0,0,1,9.85-3.55,13.091,13.091,0,0,1,6.17,4.07A80.793,80.793,0,0,0,81.64,80.78a1.706,1.706,0,0,0,2.12-.33,32.974,32.974,0,0,0,9.35-16.21c.54-2.28.92-4.6,1.45-7.26ZM52.83,93.52c-2.1-.64-3.94-1.19-6.02-1.83C48.06,94.25,50.84,95.12,52.83,93.52Z" fill="#63676a"/><path d="M53.94,27.16a2.265,2.265,0,0,1-2.26,2.32,2.36,2.36,0,0,1-2.19-2.16,2.506,2.506,0,0,1,2.25-2.27,2.331,2.331,0,0,1,2.2,2.11Z" fill="#63676a"/></g></g></svg>