<svg xmlns="http://www.w3.org/2000/svg" xmlns:xlink="http://www.w3.org/1999/xlink" width="130" height="130" viewBox="0 0 130 130"><defs><clipPath id="b"><rect width="130" height="130"/></clipPath></defs><g id="a" clip-path="url(#b)"><g transform="translate(1.508 1.02)"><g transform="translate(0 -0.02)"><path d="M291.745,220.678a2.064,2.064,0,0,0-2.183-1.663,2.1,2.1,0,0,0-2.193,1.663,9.536,9.536,0,0,0-.213,1.97c-.03,1.443-.01,2.887-.01,4.366a3.448,3.448,0,0,1-.563.1c-5.87,0-11.739-.01-17.606.02-.89,0-.99-.4-.99-1.147q.02-13.869-.023-27.739c0-1.04.36-1.247,1.293-1.237,3.306.047,6.613.017,9.919.017h8.13c0,1.667-.1,3.16.027,4.636a2.162,2.162,0,0,0,2.23,2.2,2.106,2.106,0,0,0,2.27-2.14c.16-2.11.177-4.24.147-6.36-.033-2.3-1.02-3.237-3.317-3.243q-10.909-.025-21.822,0c-2.753.01-3.59.813-3.593,3.576q-.015,16.554.067,33.108c.01,2.34.92,3.2,3.287,3.2q11.034.025,22.072,0c2.28,0,3.233-.927,3.313-3.253.067-1.913.047-3.833.02-5.746a9.825,9.825,0,0,0-.253-2.343Z" transform="translate(-175.501 -128.073)" fill="#63676a"/><path d="M337.75,245.2a2.273,2.273,0,0,0,.03,4.546,2.137,2.137,0,0,0,2.233-2.277,2.225,2.225,0,0,0-2.26-2.27Z" transform="translate(-223.672 -163.464)" fill="#63676a"/><path d="M45.348,245.022a9.217,9.217,0,1,0-9.12-9.446,9.477,9.477,0,0,0,9.12,9.449Zm.127-13.569a4.384,4.384,0,1,1,.043,8.766,4.816,4.816,0,0,1-4.526-4.586A4.286,4.286,0,0,1,45.475,231.453Z" transform="translate(-24.152 -151.057)" fill="#63676a"/><path d="M27.573,189.741a2.282,2.282,0,0,0,2.407-2.293,2.356,2.356,0,0,0-2.23-2.23,2.294,2.294,0,0,0-2.38,2.317A2.2,2.2,0,0,0,27.573,189.741Z" transform="translate(-16.913 -123.474)" fill="#63676a"/><path d="M146.278,281.6q8.924.065,17.852-.007c2.557-.023,3.33-.843,3.353-3.406.04-4,.01-8,.01-11.993h-.02c0-4.08.037-8.163-.013-12.243-.03-2.37-.793-3.113-3.166-3.163-2.437-.05-4.876-.01-7.313-.013-3.513,0-7.026-.05-10.536,0-2.55.04-3.486.937-3.5,3.316q-.04,12.054,0,24.112c.01,2.363,1,3.376,3.33,3.393Zm1.53-24.669c0-.367.033-.737.06-1.273h9.546c1.323,0,2.647.053,3.966-.013.98-.05,1.3.31,1.29,1.293-.05,6.206-.053,12.409-.07,18.616v1.05a5.5,5.5,0,0,1-.86.143c-4.173.02-8.35,0-12.523.053-1.017.013-1.45-.21-1.437-1.373.057-6.166.027-12.329.03-18.5Z" transform="translate(-95.287 -167.169)" fill="#63676a"/><path d="M126.863,53.9a26.786,26.786,0,0,0-6.136-14.876,28.83,28.83,0,0,0-6.586-6.9,7.768,7.768,0,0,1-3.3-7.036c.13-6.363.05-12.733.037-19.1,0-1.693.193-3.446-.65-4.93a2.163,2.163,0,0,0-1.883-1.07H96.532a3.062,3.062,0,0,0-2.3.973,5.275,5.275,0,0,0-.95,3.66c.033,7.2-.03,14.409.04,21.612a5.915,5.915,0,0,1-2.337,5.08,35.344,35.344,0,0,0-8.893,9.969A34.024,34.024,0,0,0,77.4,59.01a6.618,6.618,0,0,1-.217,2.043,7.62,7.62,0,0,1-.493-.733,58.341,58.341,0,0,1-6.27-20.626,85.573,85.573,0,0,1-.477-9.34c-.07-8.2-.03-16.406-.043-24.609,0-1.737-.343-3.423-1.783-4.523A4.7,4.7,0,0,0,66.746.37a4.623,4.623,0,0,0-2.113-.39H53.8c-2.833.743-3.713,2.6-3.863,5.656-.077,1.537-.057,3.08-.057,4.623-.007,7.123-.067,14.246.013,21.369A60.666,60.666,0,0,1,44.318,58c-.447.967-.857,1.953-1.283,2.93l-.36-.067c-.023-.46-.057-.917-.073-1.377-.147-3.7,0-7.436-.5-11.086-.973-7.236-4.843-12.713-10.983-16.532a2.276,2.276,0,0,1-1.22-2.293c.057-8.746.04-17.5.047-26.242C29.948,2.2,29.878.8,28.8.17a1.154,1.154,0,0,0-.543-.19H15.552A2.363,2.363,0,0,0,14,.55c-1.07.937-1.28,2.28-1.27,3.8.053,8.246.027,16.492.087,24.739a2.946,2.946,0,0,1-1.5,2.93A22.87,22.87,0,0,0,.23,50.757c-.147,2.45-.2,4.91-.2,7.363Q.007,90.484,0,122.85c0,2.013.043,3.906,1.96,5.13H123.014c.063-.107.1-.283.19-.307,2.13-.607,3.016-2.343,3.78-4.193v-70l-.12.417ZM98.161,5.02H106c0,1.373.05,2.577-.037,3.773a1.093,1.093,0,0,1-.757.747c-2.017.067-4.04.02-6.056.05-.747.01-1.027-.273-1-1.03.043-1.153.01-2.31.01-3.54Zm7.866,19.9H98.165c0-3.293-.017-6.526.033-9.759,0-.233.483-.65.753-.657,2.06-.057,4.126-.06,6.186,0,.3.01.85.463.853.72.06,3.193.04,6.39.04,9.7ZM54.834,5H65.047v6.94H54.834ZM54,41.371c1.157-7.733.683-15.519.723-23.292,0-.323.043-.65.073-1.053H65c.187,8.426.37,16.829.557,25.315-.89,0-1.947-.01-3.007,0-2.477.033-4.953.057-7.43.127-.81.023-1.27-.14-1.127-1.1ZM42.638,85.112a65.322,65.322,0,0,1,5.91-25.449c1.617-3.716,2.79-7.63,4.09-11.479a1.175,1.175,0,0,1,1.3-.987c4.05.017,8.1-.01,12.149.047A1.349,1.349,0,0,1,67.11,48c1.34,5.84,4.06,11.143,6.246,16.652a57.515,57.515,0,0,1,3.966,21.079c.027,4.913.007,9.829.007,14.743h.01v17.366c0,.623,0,1.25-.03,1.873-.13,2.563-.893,3.3-3.456,3.3q-12.644.01-25.292,0c-.95,0-1.9.023-2.85-.01-2.18-.08-3.1-1-3.107-3.17-.01-11.579-.1-23.155.033-34.731ZM17.549,5.723c0-.263.517-.737.8-.747q2.97-.1,5.95,0c.293.01.817.473.82.733.05,5.073.037,10.146.037,15.449-2.473,0-4.773.02-7.066-.037-.19,0-.53-.507-.53-.78q-.06-7.31-.01-14.616ZM4.9,52.221C4.923,44.5,8.283,38.7,15.166,35.185a3.791,3.791,0,0,0,2.39-4.026c-.093-1.367,0-2.747-.03-4.123-.017-.783.287-1.06,1.487-.847a14.433,14.433,0,0,0,4.92-.067c1.1-.183,1.163.293,1.177.923.037,1.79.11,3.576.127,5.366a2.557,2.557,0,0,0,1.52,2.367,28.267,28.267,0,0,1,3.306,1.957,17.629,17.629,0,0,1,7.573,14.319c.083,3.446.017,6.9.017,10.536-5.153,0-10.189-.007-15.226.007-.947,0-1.9.053-2.843.14a2.056,2.056,0,0,0-2,2,2.171,2.171,0,0,0,1.663,2.44,7.719,7.719,0,0,0,1.953.257c5.083.023,10.166.04,15.249,0,.923-.007,1.3.167,1.3,1.217-.037,11.453-.023,22.905-.027,34.358,0,.283-.03.567-.05.927H4.96c-.023-.49-.067-.93-.067-1.373,0-16.452-.033-32.9.01-49.354Zm.037,70.723v-14.9H37.648v14.9H4.943Zm117.124-1v1.023H82.3c-.027-.523-.07-1.007-.07-1.49q0-26.934.01-53.864c0-3.583-.043-7.166.04-10.746.193-8.266,3.683-14.956,9.729-20.416,1.563-1.41,3.43-2.693,4.433-4.456a3.6,3.6,0,0,1,3.966-2.08c1.77.127,3.553,0,5.33.053.377.01.967.237,1.08.52a12.656,12.656,0,0,0,4.2,4.993,28.2,28.2,0,0,1,10.359,16.409,31.915,31.915,0,0,1,.66,6.69q.07,31.683.03,63.363Z" transform="translate(0 0.02)" fill="#63676a"/></g></g></g></svg>