<svg xmlns="http://www.w3.org/2000/svg" xmlns:xlink="http://www.w3.org/1999/xlink" width="130" height="130" viewBox="0 0 130 130"><defs><clipPath id="b"><rect width="130" height="130"/></clipPath></defs><g id="a" clip-path="url(#b)"><g transform="translate(38.028 0.278)"><g transform="translate(-0.004 0)"><path d="M53.648,70.654c-.357-1.4-1.111-1.968-2.314-1.9a2.2,2.2,0,0,0-2.161,2.11,23.534,23.534,0,0,0-.194,3.171c-.041,9.726-.051,19.453-.082,29.179A21.861,21.861,0,0,1,29.485,124.69c-13.172,1.274-24.336-8.279-24.479-21.482-.133-12.826-.031-25.652-.031-38.477h-.02q0-18.856.01-37.713a24.8,24.8,0,0,1,.347-4.69,21.977,21.977,0,0,1,43.575,3.711c.082,7.3.051,14.61.092,21.91a21.329,21.329,0,0,0,.184,2.916,2.127,2.127,0,0,0,2.1,2,2.209,2.209,0,0,0,2.386-1.845,8.453,8.453,0,0,0,.234-1.886c.02-7.473.143-14.957-.01-22.43a27.123,27.123,0,0,0-7.6-18.78A23.954,23.954,0,0,0,32.391.428H32.36C32.177.4,31.993.377,31.81.347A41.034,41.034,0,0,0,22.715.173a9.49,9.49,0,0,0-1.529.173,26.11,26.11,0,0,0-16.843,11.8C1.071,17.159,0,22.777,0,28.649q-.015,35.862,0,71.735c0,5.954.989,11.674,4.323,16.761,3.895,5.954,9.125,10.063,16.058,11.541a29.774,29.774,0,0,0,11.827.326,4.126,4.126,0,0,0,.5-.041c.591-.1,1.183-.245,1.764-.4a7.774,7.774,0,0,0,1.815-.561,24.47,24.47,0,0,0,6.342-3.456c7.626-5.689,11.2-13.448,11.276-22.848.082-9.686.02-19.371,0-29.057a7.805,7.805,0,0,0-.255-2.008Z" transform="translate(0.004 0)" fill="#63676a"/><path d="M33.685,113.822a12.387,12.387,0,0,0,1.427-19.5,3.15,3.15,0,0,1-.9-2.07q-.046-35.862.01-71.715A38.848,38.848,0,0,0,34,16.466a7.36,7.36,0,0,0-14.416-1.152,18.826,18.826,0,0,0-.51,4.537c-.041,11.888-.02,23.776-.02,35.664H19.1q0,18.275.02,36.561a3.048,3.048,0,0,1-1.03,2.427c-4.262,4.139-5.964,11.174-.775,17.189a12.024,12.024,0,0,0,16.364,2.131ZM24.02,19.606a23.654,23.654,0,0,1,.082-2.549A2.262,2.262,0,0,1,26.09,14.9a2.441,2.441,0,0,1,2.763,1.55,5.971,5.971,0,0,1,.367,1.988q.046,16.119.061,32.238c0,.734-.194,1.111-1.009,1.071-1.06-.051-2.121-.041-3.181,0-.867.031-1.06-.377-1.06-1.172.02-5.475.01-10.96.01-16.435H24.01V19.606ZM19.973,99.742a8.04,8.04,0,0,1,2.2-2.416,4.61,4.61,0,0,0,1.917-4.16c-.041-12.051-.02-24.112-.02-36.438,1.55,0,3.028-.041,4.486.041.245.01.632.591.663.938.082,1.183.041,2.376.041,3.568,0,10.359.041,20.717,0,31.076a6.14,6.14,0,0,0,2.376,5.393,7.529,7.529,0,0,1,1.234,10.491,7.847,7.847,0,0,1-10.277,1.886,7.691,7.691,0,0,1-2.62-10.379Z" transform="translate(0.28 0.194)" fill="#63676a"/><path d="M43.393,21.343a19.906,19.906,0,0,0-4.863-.061,1.9,1.9,0,0,0-1.55,2.07,2.107,2.107,0,0,0,1.652,2.141c.724.194,1.489.245,2.325.377a24.436,24.436,0,0,0,2.416-.459,1.973,1.973,0,0,0,1.407-2.039,1.814,1.814,0,0,0-1.4-2.029Z" transform="translate(0.727 0.414)" fill="#63676a"/><path d="M41.037,40.887a20.584,20.584,0,0,0,2.488-.53,1.7,1.7,0,0,0,1.213-2A3.042,3.042,0,0,0,43.464,36.4a5.946,5.946,0,0,0-5.047-.041,3.064,3.064,0,0,0-1.376,2.029,1.858,1.858,0,0,0,1.5,2.07,22.138,22.138,0,0,0,2.488.418Z" transform="translate(0.728 0.7)" fill="#63676a"/><path d="M38.612,55.483c.724.194,1.489.245,2.365.387a19.989,19.989,0,0,0,2.488-.51,1.748,1.748,0,0,0,1.254-2.09c-.173-.724-.775-1.794-1.336-1.886a17.58,17.58,0,0,0-4.853-.112,1.9,1.9,0,0,0-1.57,2.049,2.11,2.11,0,0,0,1.631,2.161Z" transform="translate(0.727 1)" fill="#63676a"/><path d="M44.729,68.26c-.184-.724-.785-1.784-1.336-1.886a17.193,17.193,0,0,0-4.853-.1,1.9,1.9,0,0,0-1.56,2.059,2.118,2.118,0,0,0,1.641,2.151c.724.194,1.489.245,2.376.387a19.847,19.847,0,0,0,2.477-.51,1.739,1.739,0,0,0,1.244-2.1Z" transform="translate(0.727 1.293)" fill="#63676a"/><path d="M43.434,85.391a1.753,1.753,0,0,0,1.295-2.07c-.163-.724-.744-1.825-1.285-1.917a17.613,17.613,0,0,0-4.965-.1,1.874,1.874,0,0,0-1.489,2.1,2.09,2.09,0,0,0,1.59,2.059,23.161,23.161,0,0,0,2.447.4,23.891,23.891,0,0,0,2.406-.479Z" transform="translate(0.727 1.586)" fill="#63676a"/><path d="M14.245,21.212a19.013,19.013,0,0,0-4.374.041A1.877,1.877,0,0,0,8.24,23.241a2.1,2.1,0,0,0,1.54,2.223,20.642,20.642,0,0,0,2.335.387c.754-.1,1.468-.153,2.161-.316a2.093,2.093,0,0,0,1.733-2.314,1.94,1.94,0,0,0-1.774-2.008Z" transform="translate(0.166 0.412)" fill="#63676a"/><path d="M14.265,36.212a19.6,19.6,0,0,0-4.374.031A1.881,1.881,0,0,0,8.25,38.221a2.1,2.1,0,0,0,1.641,2.263c.734.184,1.489.234,2.233.357.734-.1,1.458-.153,2.151-.306a2.092,2.092,0,0,0,1.743-2.3,1.94,1.94,0,0,0-1.754-2.019Z" transform="translate(0.166 0.706)" fill="#63676a"/><path d="M14.337,51.232a18.951,18.951,0,0,0-4.5.02,1.872,1.872,0,0,0-1.6,2.008A2.141,2.141,0,0,0,9.932,55.5c.693.163,1.407.224,2.161.336.724-.1,1.478-.163,2.212-.326a2.066,2.066,0,0,0,1.7-2.212,1.928,1.928,0,0,0-1.682-2.08Z" transform="translate(0.166 0.999)" fill="#63676a"/><path d="M9.871,66.253A1.876,1.876,0,0,0,8.24,68.241,2.1,2.1,0,0,0,9.9,70.494c.734.173,1.489.235,2.243.347.724-.1,1.448-.153,2.141-.306a2.093,2.093,0,0,0,1.733-2.314,1.94,1.94,0,0,0-1.774-2.008,19.014,19.014,0,0,0-4.374.041Z" transform="translate(0.166 1.292)" fill="#63676a"/><path d="M9.871,85.484c.734.173,1.489.245,2.284.367.724-.112,1.478-.184,2.212-.347a2.045,2.045,0,0,0,1.652-2.243,1.929,1.929,0,0,0-1.733-2.039,18.426,18.426,0,0,0-4.5.061,1.867,1.867,0,0,0-1.55,2.049,2.109,2.109,0,0,0,1.621,2.161Z" transform="translate(0.165 1.585)" fill="#63676a"/><path d="M50.616,58.14a2.241,2.241,0,0,0-2.386,2.1A2.278,2.278,0,0,0,50.5,62.606a2.234,2.234,0,0,0,.1-4.466Z" transform="translate(0.947 1.136)" fill="#63676a"/></g></g></g></svg>