<svg xmlns="http://www.w3.org/2000/svg" xmlns:xlink="http://www.w3.org/1999/xlink" width="130" height="130" viewBox="0 0 130 130"><defs><clipPath id="b"><rect width="130" height="130"/></clipPath></defs><g id="a" clip-path="url(#b)"><g transform="translate(1.773 1.773)"><path d="M63.227,126.454a63.227,63.227,0,1,1,63.227-63.227A63.3,63.3,0,0,1,63.227,126.454Zm0-121.5A58.275,58.275,0,1,0,121.5,63.227,58.342,58.342,0,0,0,63.227,4.953Z" fill="#63676a"/><path d="M219.007,163.208a2.457,2.457,0,0,1-1.75-.726l-31.531-31.531A2.472,2.472,0,0,1,185,129.2V100.476a2.476,2.476,0,1,1,4.952,0v27.7l30.8,30.8a2.478,2.478,0,0,1-1.75,4.229Z" transform="translate(-123.919 -65.644)" fill="#63676a"/><circle cx="3.962" cy="3.962" r="3.962" transform="translate(59.595 12.711)" fill="#63676a"/><circle cx="3.962" cy="3.962" r="3.962" transform="translate(59.595 104.828)" fill="#63676a"/><circle cx="3.736" cy="3.736" r="3.736" transform="translate(105.814 59.491)" fill="#63676a"/><ellipse cx="4.483" cy="3.736" rx="4.483" ry="3.736" transform="translate(13.169 59.491)" fill="#63676a"/><circle cx="3.962" cy="3.962" r="3.962" transform="translate(92.163 26.202)" fill="#63676a"/><circle cx="3.962" cy="3.962" r="3.962" transform="translate(27.028 91.338)" fill="#63676a"/><circle cx="3.962" cy="3.962" r="3.962" transform="translate(27.028 26.202)" fill="#63676a"/></g></g></svg>