<svg xmlns="http://www.w3.org/2000/svg" xmlns:xlink="http://www.w3.org/1999/xlink" width="130" height="130" viewBox="0 0 130 130"><defs><clipPath id="b"><rect width="130" height="130"/></clipPath></defs><g id="a" clip-path="url(#b)"><g transform="translate(16.692 0.721)"><g transform="translate(0 -0.01)"><path d="M94.608,124.552H88.449L76.165,101.061A38.9,38.9,0,0,0,59.429,36.61V24.923H70.32a22.942,22.942,0,0,0,16.236-6.7A22.965,22.965,0,0,0,93.3,2,2.007,2.007,0,0,0,91.294-.01H5.348A2.008,2.008,0,0,0,3.338,2,22.942,22.942,0,0,0,26.122,24.921h11.09V36.608A38.908,38.908,0,0,0,20.43,101.036L8.135,124.55H2.009a2.009,2.009,0,1,0,0,4.018h92.6a2.009,2.009,0,1,0,0-4.018Zm-80.98-108.5A18.954,18.954,0,0,1,7.455,4.01H89.164A18.925,18.925,0,0,1,70.317,20.9H26.258a18.939,18.939,0,0,1-12.633-4.852Zm27.6,8.87H55.411v10.72a38.751,38.751,0,0,0-14.183,0Zm-17.586,24.3A34.886,34.886,0,0,1,39.424,40.16,2.007,2.007,0,0,0,40,40.013,34.855,34.855,0,0,1,48.319,39h0a34.843,34.843,0,0,1,8.431,1.049,1.938,1.938,0,0,0,.331.085,34.879,34.879,0,1,1-33.44,9.086Zm-.156,54.635a38.916,38.916,0,0,0,24.832,8.957h0a38.953,38.953,0,0,0,24.791-8.941l10.854,20.674H12.681l10.805-20.688Z" transform="translate(0 0.01)" fill="#63676a"/><path d="M185.78,276.138h0a7.33,7.33,0,0,0,6.39-10.89l8.84-8.84a2.01,2.01,0,1,0-2.852-2.833l-8.826,8.826a7.33,7.33,0,1,0-3.547,13.733Zm-2.351-9.689a3.313,3.313,0,0,1,2.351-.96h0a3.32,3.32,0,1,1-2.353.962Z" transform="translate(-137.461 -194.892)" fill="#63676a"/><path d="M203.7,205.346a2.007,2.007,0,0,0,2.009-2.009v-1.828a2.009,2.009,0,0,0-4.018,0v1.828A2.008,2.008,0,0,0,203.7,205.346Z" transform="translate(-155.38 -153.691)" fill="#63676a"/><path d="M203.7,418.85a2.01,2.01,0,0,0-2.009,2.009v1.828a2.009,2.009,0,1,0,4.018,0v-1.828A2.01,2.01,0,0,0,203.7,418.85Z" transform="translate(-155.38 -322.677)" fill="#63676a"/><path d="M309.059,317.168h1.828a2.009,2.009,0,1,0,0-4.018h-1.828a2.009,2.009,0,0,0,0,4.018Z" transform="translate(-236.549 -241.246)" fill="#63676a"/><path d="M94.146,315.159a2.008,2.008,0,0,0-2.009-2.009H90.309a2.009,2.009,0,1,0,0,4.018h1.828A2.01,2.01,0,0,0,94.146,315.159Z" transform="translate(-68.026 -241.246)" fill="#63676a"/></g></g></g></svg>