<svg xmlns="http://www.w3.org/2000/svg" xmlns:xlink="http://www.w3.org/1999/xlink" width="12" height="14" viewBox="0 0 12 14"><defs><clipPath id="b"><rect width="12" height="14"/></clipPath></defs><g id="a" clip-path="url(#b)"><g transform="translate(4.78 4.007)"><path d="M1.532,10.676a4.047,4.047,0,0,0,1.079.788,4.589,4.589,0,0,0,2.669.479A4.452,4.452,0,0,0,8.7,9.639a6.492,6.492,0,0,0,.874-2.644,11.424,11.424,0,0,0-.018-2.374A14.367,14.367,0,0,0,8.676.986c0-.007-.012-.011-.032-.028-.043.052-.085.1-.13.155q-.553.615-1.108,1.227a.8.8,0,0,1-.149.125.263.263,0,0,1-.381-.056.265.265,0,0,1,.017-.376c.2-.211.431-.4.615-.624.315-.388.6-.8.906-1.2a.654.654,0,0,1,.18-.186A.275.275,0,0,1,8.986.2c.137.324.266.652.384.982a15.207,15.207,0,0,1,.761,3.054A9.18,9.18,0,0,1,9.678,8.97a5.946,5.946,0,0,1-1.87,2.566,4.856,4.856,0,0,1-2.714,1.028,5.171,5.171,0,0,1-3.837-1.326.8.8,0,0,0-.078-.052,5.227,5.227,0,0,0-.27.535c-.118.321-.212.65-.315.976-.036.114-.05.242-.193.282a.3.3,0,0,1-.391-.355,4.855,4.855,0,0,1,.648-1.719.308.308,0,0,0-.012-.394,3.589,3.589,0,0,1-.652-2,4.045,4.045,0,0,1,1-2.735A6.618,6.618,0,0,1,3.18,4.135L5.492,2.978a1.139,1.139,0,0,1,.165-.072.267.267,0,0,1,.327.138.256.256,0,0,1-.067.359,2.724,2.724,0,0,1-.336.195c-.724.363-1.451.723-2.175,1.087A5.783,5.783,0,0,0,1.454,6.133,3.341,3.341,0,0,0,.822,9.6a4.121,4.121,0,0,0,.251.495c.037.069.084.1.148.022A8.731,8.731,0,0,1,2.994,8.587c.717-.511,1.445-1.009,2.158-1.527A6.919,6.919,0,0,0,6.385,5.878a.489.489,0,0,1,.233-.155.254.254,0,0,1,.282.135.267.267,0,0,1-.035.335c-.244.28-.485.564-.749.822a14.88,14.88,0,0,1-2.1,1.594c-.444.3-.887.609-1.319.929a6.048,6.048,0,0,0-1.161,1.135Z" transform="translate(-3.9 -3.5)" fill="#008d24"/><path d="M.3,13.243a.549.549,0,0,1-.422-.195.57.57,0,0,1-.12-.467,5.12,5.12,0,0,1,.681-1.806.182.182,0,0,0,.029-.061.212.212,0,0,0-.033-.06,3.844,3.844,0,0,1-.7-2.141A4.3,4.3,0,0,1,.8,5.613a6.8,6.8,0,0,1,2.271-1.7l1.155-.579L5.38,2.754l.007,0a1.3,1.3,0,0,1,.194-.084.547.547,0,0,1,.164-.026.519.519,0,0,1,.459.284.506.506,0,0,1-.143.682,2.928,2.928,0,0,1-.368.214l-.978.489q-.6.3-1.2.6A5.463,5.463,0,0,0,1.647,6.292a3.077,3.077,0,0,0-.59,3.226,1.954,1.954,0,0,0,.126.263,9.73,9.73,0,0,1,1.666-1.4c.29-.207.586-.414.872-.615.423-.3.86-.6,1.283-.911a6.656,6.656,0,0,0,1.188-1.14.737.737,0,0,1,.362-.237.481.481,0,0,1,.122-.016.537.537,0,0,1,.377.892l-.1.114c-.21.242-.428.492-.663.722a13.3,13.3,0,0,1-1.9,1.46l-.24.162c-.522.355-.939.648-1.311.923a5.675,5.675,0,0,0-.973.917,3.958,3.958,0,0,0,.857.585,4.262,4.262,0,0,0,1.99.482,5.225,5.225,0,0,0,.537-.029A4.189,4.189,0,0,0,8.485,9.508a6.213,6.213,0,0,0,.839-2.544,11.043,11.043,0,0,0-.019-2.322,13.251,13.251,0,0,0-.739-3.215c-.32.356-.649.721-.977,1.081a1.035,1.035,0,0,1-.2.165.546.546,0,0,1-.307.1.527.527,0,0,1-.4-.2.514.514,0,0,1,.029-.71c.079-.082.161-.16.24-.236a4.207,4.207,0,0,0,.361-.373c.206-.253.406-.524.6-.785.1-.135.2-.27.3-.4L8.221.051a.823.823,0,0,1,.25-.243A.512.512,0,0,1,8.72-.257a.546.546,0,0,1,.5.359c.147.348.274.674.389.995a15.327,15.327,0,0,1,.773,3.1A9.41,9.41,0,0,1,9.91,9.063,6.144,6.144,0,0,1,7.96,11.734a5.115,5.115,0,0,1-2.852,1.08,5.406,5.406,0,0,1-3.852-1.248,1.974,1.974,0,0,0-.114.242c-.081.219-.152.45-.221.674-.03.1-.06.194-.091.291,0,.013-.008.027-.012.041a.51.51,0,0,1-.351.406A.594.594,0,0,1,.3,13.243Zm5.441-10.1-.015,0a.9.9,0,0,0-.12.054L5.6,3.2,4.448,3.78l-1.156.579A6.318,6.318,0,0,0,1.181,5.933,3.817,3.817,0,0,0,.244,8.5a3.352,3.352,0,0,0,.607,1.867.55.55,0,0,1,.02.667,4.623,4.623,0,0,0-.615,1.631.074.074,0,0,0,.01.06.055.055,0,0,0,.053.015c.006-.017.014-.044.02-.063s.011-.037.016-.056c.031-.1.06-.192.09-.287.071-.23.144-.467.23-.7a3,3,0,0,1,.194-.4c.03-.054.059-.108.088-.163l.126-.247L1.342,11a.6.6,0,0,1,.077.055,4.948,4.948,0,0,0,3.658,1.265,4.623,4.623,0,0,0,2.577-.976A5.658,5.658,0,0,0,9.445,8.878a8.927,8.927,0,0,0,.438-4.609,14.834,14.834,0,0,0-.749-3C9.023.953,8.9.636,8.756.3A.113.113,0,0,0,8.719.243l-.006,0A.579.579,0,0,0,8.62.353L8.611.364c-.1.132-.2.265-.3.4-.2.266-.4.541-.614.8a4.647,4.647,0,0,1-.4.419c-.079.075-.153.146-.225.22a.071.071,0,0,0-.017.024.1.1,0,0,0,.013.019.116.116,0,0,0,.023.022.125.125,0,0,0,.026-.014.559.559,0,0,0,.1-.085c.372-.408.746-.824,1.108-1.227.03-.033.059-.068.089-.1L8.611.606,8.8.766l.008.006a.274.274,0,0,1,.1.13A14.37,14.37,0,0,1,9.8,4.6a11.482,11.482,0,0,1,.017,2.425,6.7,6.7,0,0,1-.909,2.745,4.718,4.718,0,0,1-3.6,2.422,5.527,5.527,0,0,1-.59.032A4.756,4.756,0,0,1,2.5,11.685a4.287,4.287,0,0,1-1.144-.836l-.122-.127.09-.181.017-.023A6.263,6.263,0,0,1,2.545,9.337c.377-.279.8-.576,1.327-.935l.241-.163a12.927,12.927,0,0,0,1.829-1.4c.221-.216.431-.459.635-.693l.1-.115A.071.071,0,0,0,6.694,6s0,0-.007-.012a.115.115,0,0,0-.017-.022.274.274,0,0,0-.093.071A7.144,7.144,0,0,1,5.3,7.262c-.427.31-.866.618-1.29.915-.286.2-.581.407-.869.613a8.491,8.491,0,0,0-1.725,1.488.337.337,0,0,1-.265.138.333.333,0,0,1-.3-.2c-.023-.043-.046-.085-.07-.127a2.8,2.8,0,0,1-.195-.4,3.585,3.585,0,0,1,.673-3.716A6.076,6.076,0,0,1,3.293,4.461q.6-.3,1.2-.6l.977-.488A2.449,2.449,0,0,0,5.775,3.2l0,0a.131.131,0,0,0-.013-.033C5.754,3.143,5.748,3.141,5.746,3.141Z" transform="translate(-3.9 -3.5)" fill="#008d24"/></g></g></svg>