<svg xmlns="http://www.w3.org/2000/svg" xmlns:xlink="http://www.w3.org/1999/xlink" width="20" height="20" viewBox="0 0 20 20"><defs><clipPath id="b"><rect width="20" height="20"/></clipPath></defs><g id="a" clip-path="url(#b)"><g transform="translate(-0.5 0.216)"><path d="M12.789,29A1.789,1.789,0,1,1,11,30.789,1.791,1.791,0,0,1,12.789,29Z" transform="translate(-4.977 -13.51)" fill="#e3e7e9"/><path d="M29.289,29A1.789,1.789,0,1,1,27.5,30.789,1.791,1.791,0,0,1,29.289,29Z" transform="translate(-12.799 -13.51)" fill="#e3e7e9"/><path d="M16.048,14.335H8.356a2.575,2.575,0,0,1-2.567-2.075L4.473,5.68q-.009-.038-.015-.077L3.836,2.5H1.5a1,1,0,0,1,0-2H4.656a1,1,0,0,1,.981.8l.629,3.141H18.857a1,1,0,0,1,.982,1.187l-1.262,6.619v.007A2.575,2.575,0,0,1,16.048,14.335Zm-7.7-2h7.7a.577.577,0,0,0,.566-.462l1.035-5.428H6.665l1.085,5.423a.578.578,0,0,0,.578.467Z" transform="translate(0 0)" fill="#e3e7e9"/></g></g></svg>