<svg xmlns="http://www.w3.org/2000/svg" width="97.925" height="97.913" viewBox="0 0 97.925 97.913"><g transform="translate(-0.069 -0.045)"><path d="M49.17,97.958a48.97,48.97,0,0,1-37.419-80.8A49.286,49.286,0,0,1,68.939,4.235,3,3,0,0,1,66.5,9.715a43,43,0,0,0-53.57,62.677A43,43,0,0,0,91.994,49.015v-4.23a3,3,0,0,1,6,0v4.232a49.287,49.287,0,0,1-35.1,46.96A48.358,48.358,0,0,1,49.17,97.958Z" transform="translate(0)" fill="#63676a"/><path d="M27.3,55.043a3,3,0,0,1-2.121-.879l-13.8-13.8a3,3,0,0,1,4.243-4.243L27.3,47.8,71.174,3.88A3,3,0,1,1,75.418,8.12l-46,46.043A3,3,0,0,1,27.3,55.043Z" transform="translate(21.698 6.219)" fill="#00c851"/></g></svg>