<svg xmlns="http://www.w3.org/2000/svg" xmlns:xlink="http://www.w3.org/1999/xlink" width="20" height="20" viewBox="0 0 20 20"><defs><clipPath id="b"><rect width="20" height="20"/></clipPath></defs><g id="a" clip-path="url(#b)"><path d="M18.285,7.844h-.042a6.275,6.275,0,0,0-12.466,0H5.736a3.486,3.486,0,1,0,0,6.972H7.13V8.541a4.88,4.88,0,1,1,9.761,0v6.972a2.789,2.789,0,0,1-2.21,2.726,2.789,2.789,0,1,0,.035,1.394,4.183,4.183,0,0,0,3.57-4.121v-.7a3.486,3.486,0,0,0,0-6.972ZM3.644,11.33A2.092,2.092,0,0,1,5.736,9.238v4.183A2.092,2.092,0,0,1,3.644,11.33Zm8.366,9.064A1.394,1.394,0,1,1,13.405,19,1.394,1.394,0,0,1,12.011,20.393Zm6.275-6.972V9.238a2.092,2.092,0,0,1,0,4.183Z" transform="translate(-2.011 -2.042)" fill="#e3e7e9"/><path d="M12.01,2.042A6.524,6.524,0,0,1,18.463,7.6a3.736,3.736,0,0,1,.073,7.459v.455a4.433,4.433,0,0,1-3.619,4.34A3.023,3.023,0,0,1,12,22.042a3.039,3.039,0,1,1,2.844-4.1,2.553,2.553,0,0,0,1.8-2.426V8.541a4.63,4.63,0,1,0-9.261,0v6.525H5.736A3.736,3.736,0,0,1,5.558,7.6,6.524,6.524,0,0,1,12.01,2.042Zm6.275,12.523a3.236,3.236,0,0,0,0-6.472h-.265l-.026-.221a6.025,6.025,0,0,0-11.969,0L6,8.094H5.736a3.236,3.236,0,1,0,0,6.472H6.88V8.541a5.13,5.13,0,1,1,10.261,0v6.972a3.054,3.054,0,0,1-2.408,2.971l-.228.048-.064-.224a2.539,2.539,0,1,0,.032,1.269l.038-.166.168-.025a3.911,3.911,0,0,0,3.356-3.874v-.946ZM5.736,8.988h.25v4.683h-.25a2.342,2.342,0,1,1,0-4.683Zm-.25,4.166V9.5a1.842,1.842,0,0,0,0,3.649ZM18.035,8.988h.25a2.342,2.342,0,0,1,0,4.683h-.25Zm.5,4.166a1.842,1.842,0,0,0,0-3.649Zm-6.525,4.2A1.644,1.644,0,1,1,10.366,19,1.646,1.646,0,0,1,12.011,17.354Zm0,2.789A1.144,1.144,0,1,0,10.866,19,1.146,1.146,0,0,0,12.011,20.143Z" transform="translate(-2.011 -2.042)" fill="#e3e7e9"/></g></svg>