<?xml version="1.0" encoding="utf-8"?>
<!-- Generator: Adobe Illustrator 27.8.0, SVG Export Plug-In . SVG Version: 6.00 Build 0)  -->
<svg version="1.1" id="Livello_1" xmlns="http://www.w3.org/2000/svg" xmlns:xlink="http://www.w3.org/1999/xlink" x="0px" y="0px"
	 viewBox="0 0 500 500" style="enable-background:new 0 0 500 500;" xml:space="preserve">
<style type="text/css">
	.st0{fill:#68201E;}
	.st1{fill:#922A24;}
	.st2{fill:#FFFFFF;}
</style>
<circle class="st0" cx="250.4" cy="250.5" r="147.5"/>
<path class="st1" d="M249.9,0C111.8,0-0.1,111.9-0.1,250s111.9,250,250,250s250-111.9,250-250C500.4,111.9,388.1,0,249.9,0z
	 M250.4,397.9c-81.5,0-147.5-66-147.5-147.5S169,103,250.4,103s147.5,66,147.5,147.5S331.4,397.9,250.4,397.9z"/>
<g>
	<path class="st2" d="M249.8,17.8c-128.2,0-232.1,103.9-232.1,232.1c0,128.2,103.9,232.1,232.1,232.1
		c128.2,0,232.1-103.9,232.1-232.1C481.9,121.7,378,17.8,249.8,17.8z M249.5,475.9c-124.9,0-226.2-101.3-226.2-226.2
		S124.6,23.6,249.5,23.6s226.2,101.3,226.2,226.2S374.4,475.9,249.5,475.9z"/>
	<path class="st2" d="M93,170.1c-1.7-2.1-4-3.6-6.9-4.7c-2.9-1.1-5.7-1.4-8.3-0.9c-2.6,0.5-5,1.5-7.1,2.9c-2.1,1.5-4,3.3-5.6,5.4
		c-1.6,2.2-2.8,4.4-3.7,6.7c-0.9,2.3-1.4,4.8-1.6,7.5c-0.2,2.7,0,5.3,0.7,7.8c0.7,2.5,1.8,4.8,3.5,6.8c1.7,2.1,4,3.6,6.9,4.7
		c2.9,1.1,5.7,1.4,8.3,0.9c2.6-0.5,5-1.5,7.1-2.9c2.1-1.5,4-3.3,5.5-5.5c1.5-2.2,2.7-4.4,3.6-6.8c0.9-2.3,1.4-4.8,1.7-7.5
		c0.3-2.6,0.1-5.2-0.6-7.7C95.8,174.4,94.7,172.1,93,170.1z M89.8,190c-0.6,1.6-1.4,3.1-2.5,4.5c-1.1,1.4-2.4,2.6-3.8,3.5
		c-1.4,0.9-3,1.6-4.7,1.8c-1.7,0.3-3.4,0.1-5.2-0.6c-1.8-0.7-3.2-1.6-4.3-3c-1.1-1.3-1.9-2.8-2.4-4.4c-0.5-1.6-0.7-3.4-0.6-5.2
		c0.1-1.8,0.4-3.5,1-5.1c0.6-1.6,1.4-3.1,2.5-4.5c1.1-1.4,2.4-2.6,3.8-3.5c1.4-0.9,3-1.6,4.7-1.8c1.7-0.3,3.4-0.1,5.2,0.5
		c1.8,0.7,3.2,1.6,4.3,3c1.1,1.3,1.9,2.8,2.4,4.4c0.5,1.6,0.7,3.4,0.6,5.2C90.7,186.7,90.4,188.4,89.8,190z"/>
	<path class="st2" d="M179,408.2c-0.5-0.3-1-0.7-1.5-1.4c-0.5-0.7-1.2-1.4-2.1-2.3c-0.8-0.9-1.9-1.8-3.1-2.8c-1.2-1-2.8-2-4.7-3.1
		c-2.2-1.2-4.3-2-6.2-2.3c-1.9-0.4-3.6-0.4-5.1-0.2c-1.5,0.3-2.8,0.8-3.9,1.6c-1.1,0.8-1.9,1.7-2.5,2.9c-0.9,1.7-1.3,3.2-1.2,4.5
		c0.1,1.3,0.5,2.6,1.2,3.7c0.7,1.1,1.6,2.2,2.8,3.1c1.2,0.9,2.4,1.8,3.7,2.7c1.3,0.8,2.6,1.6,3.9,2.4c1.3,0.7,2.4,1.5,3.3,2.2
		c0.9,0.7,1.6,1.4,2,2.2c0.4,0.7,0.4,1.5,0,2.3c-0.4,0.8-1.1,1.3-2.1,1.4c-0.9,0.1-2,0.1-3-0.1c-1.1-0.2-2.1-0.5-3.1-1
		c-1-0.4-1.8-0.8-2.4-1.1c-0.8-0.4-1.7-1-2.6-1.8c-0.9-0.7-1.8-1.5-2.6-2.4c-0.8-0.8-1.4-1.6-1.9-2.4c-0.5-0.8-0.8-1.5-0.8-2
		c0-0.3,0.1-0.7,0.2-1l-0.4-0.6l-6.4,4.9l0.5,0.8c0.4-0.2,0.7-0.2,0.9-0.1c0.4,0.2,0.8,0.6,1.2,1.1c0.4,0.6,1,1.2,1.7,2.1
		c0.7,0.8,1.7,1.7,3,2.7c1.3,1,2.9,2,4.9,3.1c1.5,0.8,3.1,1.5,4.9,2.2c1.8,0.7,3.7,1.1,5.5,1.2c1.8,0.1,3.5-0.2,5.2-0.8
		c1.6-0.7,2.9-1.9,3.9-3.8c0.9-1.6,1.2-3.1,1.1-4.4c-0.1-1.3-0.5-2.6-1.2-3.7c-0.7-1.1-1.6-2.2-2.8-3.1c-1.2-1-2.4-1.9-3.7-2.7
		c-1.3-0.8-2.6-1.6-3.9-2.4c-1.3-0.8-2.4-1.5-3.3-2.3c-0.9-0.8-1.6-1.5-2-2.3c-0.4-0.8-0.4-1.6,0.1-2.4c0.3-0.6,0.8-1,1.5-1.2
		c0.7-0.2,1.4-0.2,2.2-0.1c0.8,0.1,1.7,0.3,2.6,0.7c0.9,0.3,1.8,0.7,2.5,1.1c1,0.6,2,1.2,3,2c0.9,0.7,1.8,1.5,2.5,2.3
		c0.7,0.8,1.3,1.6,1.8,2.3c0.4,0.8,0.7,1.4,0.8,2c0,0.4,0,0.9-0.2,1.5l0.4,0.5l7.3-4.7l-0.4-0.8C180,408.5,179.6,408.4,179,408.2z"
		/>
	<path class="st2" d="M218.4,417c-0.4,0.1-0.8,0.1-1.1,0l-26.1-7c-0.4-0.1-0.7-0.3-1-0.6c-0.3-0.3-0.3-0.7-0.2-1.2L189,408l-2.2,8.2
		l1.1,0.3c0.1-0.5,0.4-0.9,0.8-1c0.4-0.1,0.8-0.1,1.1,0l9.7,2.6l-6.3,23.4c-0.1,0.3-0.3,0.6-0.5,0.7c-0.3,0.1-0.5,0.1-0.8,0.1
		l-0.3,1.1l9,2.4l0.3-1.1c-0.9-0.2-1.2-0.7-1-1.4l6.3-23.4l9.7,2.6c0.4,0.1,0.7,0.3,0.9,0.6c0.3,0.3,0.3,0.7,0.2,1.2l1.1,0.3
		l2.2-8.2l-1.1-0.3C219.1,416.6,218.8,416.9,218.4,417z"/>
	<path class="st2" d="M82.4,142l24.4,18.7c0.6,0.5,0.6,1.3-0.2,2.3l1,0.7l7.1-9.3l-1-0.7c-0.5,0.6-0.9,1-1.2,1.1
		c-0.3,0.1-0.7,0-1-0.2l-9.6-7.3l5.9-7.7l12.9,0.5c0.6,0,1.1,0,1.4,0.1c0.3,0,0.6,0.1,0.8,0.3c0.2,0.1,0.2,0.4,0.2,0.7
		c-0.1,0.3-0.2,0.6-0.5,1l1,0.7l7.7-10.1l-1-0.7c-0.2,0.3-0.5,0.6-0.8,0.9c-0.3,0.3-0.8,0.4-1.3,0.4l-15.7-0.7
		c1.4-2.7,2-5.2,1.8-7.6c-0.2-2.4-1.5-4.4-3.8-6.3c-1.5-1.2-3-1.9-4.5-2.2c-1.5-0.3-2.9-0.2-4.3,0.3c-1.4,0.5-2.8,1.3-4.2,2.5
		c-1.4,1.2-2.7,2.6-4,4.3l-14.1,18.4l1,0.7C81.1,141.8,81.8,141.5,82.4,142z M96.9,128.7c1-1.3,1.9-2.3,2.8-3
		c0.9-0.7,1.7-1.2,2.4-1.4c0.7-0.2,1.4-0.3,2.1-0.1c0.7,0.2,1.3,0.5,1.8,0.9c0.6,0.4,1,1,1.3,1.5c0.3,0.6,0.5,1.3,0.4,2
		c0,0.8-0.3,1.7-0.7,2.7c-0.5,1-1.2,2.2-2.2,3.5l-7.1,9.3l-8-6.1L96.9,128.7z"/>
	<path class="st2" d="M209.1,271c-1.2,1-2.1,2.6-1.8,2.4c0.3-0.2,0.5,0.2,0.5,0.2c0.3,1.3-0.4,0.9,0.2,1.3c0.6,0.4,0.6,1.6,0.7,1.7
		c0.1,0.1,0.4-0.3,1.1-0.6c0.7-0.3,0.8-0.1,0.8-0.1c1.3-0.9,1.5-1.4,1.5-2.1c-0.1-0.7,0.1-0.9,0.2-1.6c0.2-0.6,0.3-0.1,0.3-0.1
		l0.5,1.2c0.1,0.2,0.1-0.5,0.2,0c0.2,0.4,0.3,1,0.3,1c1.4,0.3-0.2,1.8,0.7,1c0.9-0.8,0.9-2.6,1.2-2.4c0.3,0.2,0.3-0.2,0.3-0.2
		l-0.2-1.1c0.1,0,0.6,0,0.2-0.3c-0.4-0.3-0.8-1.7-0.6-1.5c0.2,0.1,0.9-0.1,0.8-0.2l0.1-0.9c0,0,0-0.4-0.7-0.7
		c-0.7-0.3-0.3-0.4-0.3-0.4s0.2-0.4-1.1-0.6c-1.2-0.2-1.8,0.9-2,1.2c1.1-2-0.4-2.8-0.2-2.6c0.2,0.3-3.5-1.4-3,0.1
		c0.4,1.5,0.3,0.6,0.7,1.2c0.4,0.6,0.1,0.5-0.8,0.4c-0.9-0.1,0,0.2,0,0.2s-1.9,0.7-1.4,0.7c0.5,0,0.1,0.3,0.1,0.3l-2,1.7
		c0.2,0.2,0.9,0.5,1.1,0.7c0.2,0.2,0,0,1.5-0.2C209.6,270.4,209.1,271,209.1,271z"/>
	<path class="st2" d="M355.1,412.9c0.2,0.4,0.2,0.9,0,1.3c-0.2,0.4-0.6,0.8-1.1,1.1l-17.8,9.7l-4-7.4l10.5-5.7
		c0.7-0.4,1.3-0.6,1.8-0.6c0.5,0,1,0.4,1.4,1.3l1-0.5l-4.5-8.3l-1,0.5c0.4,0.8,0.5,1.4,0.2,1.8c-0.3,0.4-0.8,0.8-1.5,1.2l-10.5,5.7
		l-3.6-6.6l17.3-9.4c0.7-0.4,1.3-0.6,1.7-0.6c0.4,0,0.7,0.2,0.9,0.6l1-0.5l-3.8-7l-1,0.5c0.2,0.4,0.2,0.8,0.1,1.2
		c-0.2,0.4-0.6,0.8-1.4,1.2l-24.3,13.3l0.5,1c0.2-0.1,0.5-0.2,0.8-0.1c0.3,0.1,0.5,0.2,0.7,0.6l13.2,24.2c0.2,0.3,0.2,0.6,0.1,0.9
		c-0.1,0.3-0.3,0.5-0.5,0.6l0.5,1l24.9-13.5c0.5-0.3,1-0.5,1.4-0.6c0.4-0.1,0.7,0.1,1,0.6l1-0.5l-4-7.3L355.1,412.9z"/>
	<path class="st2" d="M314.9,439.4c-0.4,0-0.8-0.1-1.2-0.5l-10.7-9.1c2.5-1.1,4.3-2.6,5.5-4.4c1.2-1.8,1.4-4,0.7-6.5
		c-0.4-1.7-1.1-3-2-4c-0.9-1-2-1.7-3.3-2.2c-1.3-0.4-2.7-0.6-4.4-0.6c-1.6,0.1-3.4,0.3-5.3,0.8l-20.1,5.2l0.3,1.1
		c1.1-0.3,1.8-0.1,2,0.6l6.9,26.7c0.2,0.7-0.3,1.2-1.4,1.5l0.3,1.1l10.2-2.6l-0.3-1.1c-0.7,0.2-1.1,0.2-1.4,0.1
		c-0.3-0.1-0.5-0.3-0.6-0.7l-2.7-10.5l8.4-2.2l8.9,7.5c0.4,0.4,0.8,0.6,1,0.8c0.2,0.2,0.4,0.4,0.4,0.6c0.1,0.2,0,0.4-0.3,0.6
		c-0.2,0.2-0.5,0.3-0.9,0.4l0.3,1.1l11-2.9l-0.3-1.1C315.6,439.3,315.2,439.4,314.9,439.4z M301.8,424.4c-0.4,0.5-1.1,1-2,1.5
		c-0.9,0.5-2,0.9-3.4,1.2l-10.2,2.6l-2.3-8.7l10.2-2.6c1.4-0.4,2.6-0.6,3.6-0.6c1,0,1.8,0.1,2.5,0.3c0.6,0.3,1.2,0.6,1.5,1.1
		c0.4,0.5,0.6,1,0.8,1.6c0.2,0.6,0.2,1.2,0.1,1.8C302.5,423.3,302.3,423.8,301.8,424.4z"/>
	<path class="st2" d="M259,423.2c-1.9-1.4-4-2.4-6.3-3.1c-2.3-0.7-4.6-1.1-6.8-1.1c-2.2,0-4.5,0.3-6.8,0.9c-2.3,0.6-4.4,1.6-6.4,2.9
		c-1.9,1.3-3.5,3-4.7,5c-1.2,2-1.9,4.4-1.9,7.2c0,2.8,0.5,5.2,1.7,7.3c1.2,2.1,2.7,3.8,4.6,5.1c1.9,1.4,4,2.4,6.3,3
		c2.3,0.6,4.6,1,6.8,1c2.2,0,4.5-0.2,6.8-0.8c2.3-0.6,4.4-1.5,6.4-2.8c1.9-1.3,3.5-3,4.7-5c1.2-2,1.9-4.4,1.9-7.2
		c0-2.8-0.5-5.2-1.7-7.3C262.4,426.2,260.8,424.5,259,423.2z M257.4,440c-0.8,1.3-1.8,2.4-3.1,3.3c-1.2,0.9-2.6,1.6-4.2,2
		c-1.5,0.5-3.1,0.7-4.6,0.7c-1.5,0-3.1-0.3-4.6-0.8c-1.5-0.5-2.9-1.2-4.1-2.2c-1.2-0.9-2.2-2.1-3-3.4c-0.8-1.3-1.1-2.9-1.1-4.6
		c0-1.7,0.4-3.2,1.2-4.5c0.8-1.3,1.8-2.4,3.1-3.3c1.2-0.9,2.6-1.6,4.2-2c1.5-0.5,3.1-0.7,4.6-0.7c1.5,0,3.1,0.3,4.6,0.8
		c1.5,0.5,2.9,1.2,4.1,2.1c1.2,0.9,2.2,2.1,3,3.4c0.8,1.3,1.1,2.9,1.1,4.6C258.6,437.2,258.2,438.7,257.4,440z"/>
	<path class="st2" d="M83.3,233l-26.9-2l0.8-11.1c0-0.4,0.2-0.8,0.4-1.2c0.3-0.4,0.7-0.5,1.3-0.5l0.1-1.2l-9.5-0.7l-0.1,1.2
		c0.6,0,1,0.3,1.2,0.7c0.2,0.4,0.3,0.8,0.2,1.2l-2.2,30c0,0.4-0.2,0.8-0.4,1.2c-0.3,0.4-0.7,0.5-1.3,0.5l-0.1,1.2l9.5,0.7l0.1-1.2
		c-0.6,0-1-0.3-1.2-0.7c-0.2-0.4-0.3-0.8-0.3-1.2l0.8-11.1l26.9,2c0.4,0,0.7,0.2,0.9,0.4c0.2,0.3,0.3,0.6,0.2,0.9l1.2,0.1l0.8-10.4
		l-1.2-0.1C84.6,232.6,84.2,233.1,83.3,233z"/>
	<path class="st2" d="M362.9,128.3l7.4,7.3l0.9-0.9c-0.7-0.7-0.8-1.3-0.2-1.9l19-19.1l7.9,7.9c0.3,0.3,0.5,0.6,0.6,1.1
		c0.1,0.4,0,0.9-0.5,1.3l0.9,0.9l6.7-6.7l-0.9-0.9c-0.4,0.5-0.9,0.6-1.3,0.5c-0.4-0.1-0.8-0.3-1.1-0.6L380.9,96
		c-0.3-0.3-0.5-0.6-0.6-1.1c-0.1-0.4,0.1-0.9,0.5-1.3l-0.9-0.9l-6.7,6.7l0.9,0.9c0.4-0.5,0.9-0.6,1.3-0.5c0.4,0.1,0.8,0.3,1.1,0.6
		l7.9,7.9l-19,19.1c-0.3,0.3-0.6,0.4-0.9,0.4c-0.3,0-0.6-0.2-0.8-0.4L362.9,128.3z"/>
	<path class="st2" d="M384.8,151.1l-1,0.7l6.3,9.3l1-0.7c-0.7-1-0.6-1.7,0-2.1l25.5-17.2c0.7-0.5,1.3-0.2,2,0.8l1-0.7l-6.3-9.3
		l-1,0.7c0.7,1,0.7,1.7,0,2.1l-25.5,17.2C386.1,152.4,385.4,152.1,384.8,151.1z"/>
	<path class="st2" d="M321.3,98.4c-0.9-0.5-1.2-1.1-0.8-1.8l10.8-19.7l7.7,28.8c0.3,1,0.4,1.6,0.2,1.9c-0.2,0.4-0.6,0.4-1.1,0.1
		l-0.6,1.1l9.6,5.3l0.6-1.1c-0.7-0.4-0.9-1-0.5-1.7l14.8-26.9c0.4-0.7,1-0.9,1.7-0.5l0.6-1.1l-9-4.9l-0.6,1.1c1,0.6,1.3,1.2,1,1.9
		l-10.4,18.9l-7.3-27c-0.4-1.2-0.4-2-0.3-2.3c0.2-0.4,0.5-0.5,0.8-0.3l0.6-1.1l-10.2-5.6l-0.6,1.1c0.7,0.4,0.9,1,0.5,1.7l-14.8,26.9
		c-0.4,0.7-1,0.9-1.7,0.5l-0.6,1.1l8.8,4.8L321.3,98.4z"/>
	<path class="st2" d="M273.9,84c-0.8-0.2-1.2-0.5-1.1-1c0.1-0.4,0.4-1,1.1-1.8l3.4-4.2l16.1,3.5l1.5,5.4c0.2,0.8,0.3,1.4,0.2,1.8
		c-0.1,0.3-0.2,0.4-0.5,0.5c-0.3,0.1-0.5,0.1-0.7,0.1l-0.3,1.2l11.6,2.5l0.3-1.2c-0.4-0.3-0.8-0.6-1.1-0.9c-0.3-0.3-0.5-0.7-0.7-1.3
		l-7.9-29.9c-0.2-0.6-0.3-1.2-0.4-1.5c-0.1-0.4-0.1-0.8,0-1.1c0.1-0.5,0.3-0.8,0.7-0.9c0.3-0.1,0.7-0.1,1-0.2l0.3-1.2l-11.2-2.4
		l-0.3,1.2c0.3,0.2,0.6,0.4,0.9,0.6c0.3,0.2,0.4,0.6,0.3,1c-0.1,0.4-0.3,0.7-0.6,1.2c-0.3,0.4-0.7,0.9-1.2,1.4L267.3,80
		c-0.4,0.6-0.9,1-1.3,1.4c-0.4,0.4-0.9,0.6-1.5,0.6l-0.3,1.2l9.4,2L273.9,84z M289.2,61.6l2.9,13.5l-11.8-2.5L289.2,61.6z"/>
	<path class="st2" d="M167.3,68.9l12.3,28.2c0.3,0.7-0.1,1.3-1.1,1.8l0.5,1.1l10.3-4.5l-0.5-1.1c-1.1,0.5-1.8,0.3-2.1-0.4
		l-12.3-28.2c-0.3-0.7,0-1.3,1.1-1.8l-0.5-1.1l-10.3,4.5l0.5,1.1C166.3,68,167,68.2,167.3,68.9z"/>
	<path class="st2" d="M120,98.5l18,24.9c0.5,0.7,0.2,1.4-0.9,2.1l0.7,1l9.5-6.9l-0.7-1c-0.6,0.5-1.1,0.7-1.5,0.7
		c-0.4,0-0.7-0.2-0.9-0.5l-7.1-9.8l7.8-5.7l12.2,4.2c0.6,0.2,1,0.4,1.4,0.5c0.3,0.1,0.5,0.3,0.7,0.5c0.1,0.2,0.1,0.4,0,0.7
		c-0.2,0.3-0.4,0.5-0.7,0.8l0.7,1l10.3-7.4l-0.7-1c-0.3,0.2-0.6,0.4-1,0.6c-0.4,0.2-0.9,0.2-1.4,0l-14.8-5.1
		c2.1-2.2,3.4-4.4,3.9-6.7c0.5-2.3-0.1-4.7-1.9-7.1c-1.1-1.6-2.4-2.7-3.7-3.4c-1.3-0.7-2.8-1-4.3-0.9c-1.5,0.1-3.1,0.5-4.7,1.2
		c-1.7,0.7-3.4,1.7-5.1,3L117,97.7l0.7,1C118.8,97.9,119.5,97.8,120,98.5z M137.8,89.8c1.3-1,2.5-1.6,3.5-2.1c1-0.4,1.9-0.6,2.7-0.7
		c0.8,0,1.5,0.2,2,0.5c0.6,0.3,1.1,0.8,1.5,1.4c0.4,0.6,0.7,1.2,0.8,1.9c0.1,0.6,0.1,1.3-0.2,2.1c-0.2,0.7-0.7,1.5-1.5,2.4
		c-0.7,0.8-1.8,1.7-3.1,2.7l-9.5,6.9l-5.9-8.1L137.8,89.8z"/>
	<path class="st2" d="M224.6,81.1c2.1,1.4,4.5,2.3,7.2,2.9c2.7,0.5,5.4,0.7,8.2,0.5c2.2-0.1,4.2-0.5,6.2-1.2
		c1.9-0.6,3.7-1.3,5.2-2.1c1.5-0.8,2.8-1.5,3.7-2.1c1-0.6,1.6-0.9,1.9-0.9l0.4,0l0.4,0l0.5-0.6l-4.9-6.9l-0.9,0.6
		c0.2,0.2,0.3,0.5,0.3,0.8c0,0.6-0.4,1.2-1.2,1.9c-0.8,0.7-1.9,1.4-3.2,2c-1.3,0.6-2.7,1.1-4.2,1.6c-1.6,0.4-3.1,0.7-4.5,0.8
		c-1.9,0.1-3.7,0-5.5-0.4c-1.8-0.4-3.3-1.1-4.7-2.1c-1.4-0.9-2.5-2.2-3.3-3.6c-0.9-1.5-1.4-3.2-1.5-5.1c-0.1-1.9,0.1-3.7,0.8-5.2
		c0.7-1.6,1.6-2.9,2.8-4c1.2-1.1,2.7-2,4.4-2.7c1.7-0.7,3.5-1.1,5.4-1.2c1.1-0.1,2.4,0,3.7,0.2c1.3,0.2,2.6,0.4,3.9,0.8
		c1.2,0.3,2.3,0.7,3.1,1.2c0.8,0.5,1.3,0.9,1.5,1.4l0.1,0.5l0.1,0.4l0.7,0.4l4.7-8.5l-1.1-0.7c-0.1,0.1-0.2,0.3-0.3,0.6
		c-0.1,0.2-0.3,0.4-0.6,0.4c-0.2,0-0.7-0.1-1.5-0.4c-0.8-0.3-2-0.6-3.4-0.9c-1.4-0.3-3.1-0.6-5-0.8c-1.9-0.2-4-0.3-6.3-0.1
		c-2.8,0.2-5.5,0.8-8.1,1.7c-2.6,0.9-4.8,2.2-6.7,3.9c-1.9,1.7-3.4,3.7-4.4,6c-1,2.4-1.4,5-1.2,8c0.2,3,1,5.6,2.3,7.8
		C220.7,77.9,222.5,79.7,224.6,81.1z"/>
	<path class="st2" d="M179.8,250.8c0,0,1.4-1.4-3.8-4.3c-4.6-2.5-9,0.8-10,1.7c7.8-6.4,3-12.4,3.3-11c0.3,1.4-12.2-11.5-12.8-4.5
		c-0.6,7,0.5,2.9,1,6.1c0.5,3.2-0.2,2.1-4,0.2c-3.8-1.9-0.4,0.6-0.4,0.6s-8.9-0.1-7,0.9c1.9,1,0.1,1.6,0.1,1.6s-11.6,3.1-11.1,4
		c0.5,0.9,3,3.4,3.5,4.6c0.5,1.3,0,0,6.8,1.5c6.8,1.5,3.3,3.3,3.3,3.3c-6.7,2.1-13,7.5-11.4,7c1.7-0.4,1.6,1.4,1.6,1.4
		c-1,6-2.9,3.2-1.1,5.8c1.8,2.6,0.2,7.7,0.4,8.2c0.2,0.6,2.1-0.5,5.7-0.7c3.5-0.2,3.5,1,3.5,1c6.8-1.5,8.6-3.4,9.4-6.3
		c0.8-2.9,1.8-3.7,3.5-6.1c1.8-2.4,1.5,0.2,1.5,0.2s0.1,5,0.2,5.9c0.1,0.8,1-1.9,1,0.2c0,2.2-0.5,4.6-0.5,4.6
		c5.5,3.7-3.8,7.3,1.5,5.4c5.3-2,7.7-9.3,8.7-8.1c1,1.2,1.6-0.2,1.6-0.2s0.5-5.2,1.1-5.1c0.6,0.2,2.4,1,1.3-0.8
		c-1.1-1.8-0.8-8.2-0.1-7.3c0.7,0.9,3.8,1.1,3.7,0.5c-0.1-0.6,1.9-3.8,1.9-3.8s0.5-1.6-1.7-4.1C178.1,250.7,179.8,250.8,179.8,250.8
		z"/>
	<path class="st2" d="M327.8,175.6c-0.8-2.3-1.6-4.7-2.2-7.1c0.7-1.3,2.5-3.2,6.7-4c7.6-1.5,11-4.1,14.6-7.4l-1.3-1.5
		c-0.1,0.1-6.6,5.2-13.7,6.3c-3.6,0.6-5.8,1.9-7.2,3.1c-3.2-15.1-1.3-27.5-1.3-27.7l-1.9-0.6c-0.3,0.6-6.1,14.1,2.2,40.3
		c2,6.4,2.2,13.7,0.5,21.9c-2.4-2.7-6.9-6.1-15.6-7.5c-14.9-2.3-28.6-13.2-28.7-13.3l-1.3,1.5c7.3,6.6,14.2,12,29.7,15
		c9.3,1.8,13.2,6.3,14.8,9c-1.4,5.1-3.4,9.9-5.4,14.1l0,0c0,0-0.1,0.3-0.4,0.8c-0.1,0.2-0.2,0.4-0.3,0.6c-0.2,0.4-0.4,0.8-0.6,1.3
		c-0.3,0.5-0.5,1-0.8,1.5c-1.9,3.6-4.8,8.9-7.8,12.7c-0.5,0.4-13.3,11.9-26.9,14.4c-3.4,3-6.2,6.3-8.2,9.2c9.5-1.4,28.8-6,39.4-20.6
		c1.6-2.2,3.1-4.5,4.6-6.7l0.1,0c2.6-4,4.9-8.6,6.1-10.9C331,203.7,332.6,188.8,327.8,175.6z"/>
	<path class="st2" d="M279.4,170.7c0.6,0.3,1.6,2.3,1.3,2.2c-0.4-0.1-1.3,0.3-1.2,0.5l0.1,1.5c0,0,0.1,0.6,1.2,0.9
		c1.1,0.4,0.6,0.6,0.6,0.6s-0.2,0.7,1.9,0.6c1.8,0,2.5-1.8,2.7-2.2c-1.2,3.2,1.2,4.2,0.9,3.9c-0.3-0.4,5.6,1.4,4.6-0.8
		c-1-2.2-0.6-0.8-1.3-1.7c-0.7-0.9-0.3-0.7,1.2-0.7c1.4-0.1,0-0.2,0-0.2s2.7-1.5,1.9-1.4c-0.7,0-0.3-0.5-0.3-0.5s2.9-2.9,2.6-3.1
		c-0.3-0.2-1.5-0.5-1.8-0.8c-0.4-0.3,0,0-2.3,0.7c-2.3,0.7-1.6-0.4-1.6-0.4c1.6-1.8,2.6-4.4,2.2-4c-0.4,0.4-0.7-0.1-0.7-0.1
		c-0.7-2,0.3-1.5-0.6-1.9c-1-0.5-1.4-2.3-1.5-2.4c-0.2-0.1-0.6,0.5-1.6,1.2c-1,0.7-1.2,0.3-1.2,0.3c-1.8,1.6-2,2.5-1.7,3.5
		c0.3,1,0.1,1.4,0,2.4c-0.1,1-0.5,0.2-0.5,0.2s-0.9-1.5-1.1-1.7c-0.2-0.2,0,0.7-0.3,0.1c-0.4-0.6-0.6-1.5-0.6-1.5
		c-2.3-0.2-0.1-2.8-1.4-1.3c-1.2,1.5-0.7,4.1-1.2,3.9c-0.5-0.2-0.4,0.3-0.4,0.3l0.5,1.7C279.5,170.3,278.8,170.3,279.4,170.7z"/>
	<path class="st2" d="M249.8,103.2c-81.2,0-147.1,65.8-147.1,147.1c0,81.2,65.8,147.1,147.1,147.1s147.1-65.8,147.1-147.1
		C396.9,169.1,331,103.2,249.8,103.2z M109.5,249.9c0-26.9,7.6-52,20.7-73.3c6.9,7.8,13.9,16.5,21.1,25.4c4.4,5.5,8.8,11,13.3,16.4
		c-0.3,0-0.6-0.1-0.9-0.1c-14.9-2.3-28.6-13.1-28.7-13.3l-1.3,1.5c7.4,6.6,14.2,12,29.6,15c1.8,0.3,3.4,0.8,5.1,1.4
		c22.4,25.9,38.5,34,49.2,39.4c3.7,1.8,6.5,3.3,8.6,5c10.8,8.8,12.9,31.9,13.3,37.3l0,0.7c-0.2,2.2-0.5,4.3-0.8,6
		c-43.6-3.6-82.8,1.2-111.3,7C116,298.1,109.5,274.7,109.5,249.9z M249.6,390.1c-31.8,0-61.1-10.6-84.7-28.5
		c8.6,1.4,17.3,3.3,26.1,5.6c0,0,28.2,5.2,71.2,22.3C258.1,389.9,253.9,390.1,249.6,390.1z M278.9,387c-1.4-0.5-2.8-1.1-4.3-1.7
		c-44.7-18-74-23.4-74-23.4c-15.5-4.1-30.7-6.6-45.2-8.2c-2.3-2.1-4.6-4.3-6.8-6.6c20.7,0.9,43.8,3.8,67.5,10c0,0,29.4,5.4,74,23.4
		c1.7,0.7,3.4,1.4,5.1,2C289.9,384.3,284.5,385.8,278.9,387z M306.7,377.9c-2.3-0.9-4.7-1.8-7.1-2.8c-44.6-18-74-23.4-74-23.4
		c-29.5-7.7-58-10.2-82.1-10.3c-1.1-1.3-2.2-2.6-3.2-3.9c24.1-0.9,52.8,0.2,82.7,6.6c0,0,29.6,4.1,75,20.1c7.8,2.8,15.1,5,21.9,7
		C315.6,373.7,311.2,375.9,306.7,377.9z M329,365.5c-6.8-1.9-14-4.2-21.8-6.9c-45.4-16-75-20.1-75-20.1c-35.5-7.6-69.3-7.9-95.7-5.9
		c-1.2-1.6-2.3-3.3-3.5-4.9c26.4-2.7,60.4-3.5,96.3,3.1c0,0,29.7,3.2,75.5,17.9c12.8,4.1,24.2,7.1,34.2,9.2
		C335.8,360.6,332.4,363.1,329,365.5z M346.1,351.5c-9.5-2.1-20.3-4.9-32.3-8.8c-45.8-14.7-75.5-18-75.5-18
		c-41.5-7.7-80.6-5.5-108.2-1.7c-0.5-0.9-1-1.7-1.5-2.6c45.6-8.1,111.7-11.7,180.4,11.1c17,5.6,31.9,9.4,45,11.9
		C351.5,346.3,348.9,348.9,346.1,351.5z M381.3,201.8c5.5,15,8.5,31.2,8.5,48.1c0,19.3-3.9,37.8-11,54.5
		c-3.3-0.3-29.4-2.2-67.8,11.1c0,0-0.1,0.3-0.3,0.7c0.7,0.2,1.4,0.5,2,0.8c1.4,0.5,2.9,1.1,4.5,1.6c8-4.3,29.8-14.2,61.5-14.1
		c-0.9,2-1.8,4-2.7,6c-11.2,1.4-25.5,4.3-42.2,10.1c0,0-0.5,1-0.7,2.3c1.9,0.5,3.9,0.9,5.9,1.4c4.9-2.8,17.6-9,36.4-12.4
		c-4.6,9.3-10.2,18-16.7,26c-13-2.5-28-6.3-45.4-11.8c-19.7-6.3-39.1-10.4-57.8-12.8c-1.3-2.4-1.2-5.6-1-7.3
		c0.1-1.9,0.7-7.3,2.9-15.2c2.8-10,4.9-16.3,4.9-16.4c0,0,0.6-2.3,2.1-5.8l0-0.1c0.3-0.6,0.6-1.3,0.9-2.1
		c7.1-14.5,18.8-22.1,18.8-22.1h0c6.5-4.7,13.9-8.2,22.2-10.6c1.1-1.6,2.9-4.4,4.8-7.3c-29,4.8-47.4,14.5-54.7,29
		c-2.8-4.6-5.8-12.2-6.7-24.1c-0.6-9.5,4.9-19,10.8-29.1c8.5-14.5,18.2-31,10.6-51.2c-0.5-1.2-0.9-2.4-1.4-3.1
		c-0.3-2-0.1-6.2,4.6-11.1c7.6-7.9,9.3-13.6,10.8-20.3l-1.9-0.5c0,0.1-3.4,11.6-10.8,18.7c-3.2,3.1-4.8,6-5.4,8.3
		c-6.1-8.7-14.4-9.8-20.3-9.8c-4.3,0-8.7,0.6-13.1,1.3c-4.3,0.6-8.3,1.2-12.2,1.2c-5.2,0-9.1-1.1-12.2-3.5l-1.5,1.2
		c0.1,0.2,2.5,5.3,14.3,5.3c4.3,0,9.4-0.7,15.1-2c0,0,2.5-0.5,5.9-0.5c7.3,0,20.1,2.2,24.3,17.2c0.1,0.1,6.2,11.5-7.5,35.7
		c-3.6-4.5-11.6-10.7-28.3-10.7c-3.5,0-7.2,0.3-11.2,0.8c-2.2,0.3-4.3,0.4-6.3,0.4c-28.1,0-32.6-28.7-32.8-29.9l-2,0.2
		c0,0.3,1.7,33.7,35.8,33.7c1.7,0,3.5-0.1,5.3-0.2c2.6-0.2,5.1-0.4,7.4-0.4c19.7,0,25.5,8.6,27.2,14c0,0-0.7,1.1-0.9,1.3
		c-0.6,0.7-14.4,16.8-15.9,34.7c0,0.6,1.1,13.5,5.6,22.3c0,0,5.3,9.6,4.4,13.6c0,0-0.8-12.3-15.5-15.5c-2.7-0.4-5.4-0.9-8.2-1.7
		c-0.8-6.4-3-15.5-8.1-23.6c-7.9-12.4-6.6-32.8-6.6-33.1l-2-0.2c-0.1,0.9-2,22.1,6.1,34.4c3.7,5.6,6.1,14.8,6.6,21.3
		c-31.2-9.8-50.3-37.1-50.4-37.4c-12.1-18.1-23.8-33-34.9-44.4c25.4-35.6,67-58.8,114.1-58.8c58.5,0,108.6,35.9,129.6,86.8
		c-12.4,11.5-28.8,22.1-55.9,27.5c-1.1,2.1-2.5,4.4-3.6,6.4C347.9,225.2,363.3,218.5,381.3,201.8z"/>
	<path class="st2" d="M347.8,253.4c0.8,0.1,3.6-0.4,4.6-0.2c1.1,0.2,0,0,4.1-3.8c4.1-3.8,3.7-0.7,3.7-0.7c-1.7,5.4-1.1,12-0.6,10.7
		c0.5-1.3,1.7-0.5,1.7-0.5c3.5,3.4,0.8,3.4,3.3,3.4c2.5,0,5.1,3.4,5.6,3.5c0.5,0.1,0.7-1.6,2.2-4c1.5-2.4,2.3-1.9,2.3-1.9
		c2.1-5.2,1.7-7.2,0.2-9.1c-1.5-1.8-1.6-2.8-2.4-5.1c-0.7-2.2,0.8-0.9,0.8-0.9s3.4,2.2,3.9,2.5c0.6,0.3-0.8-1.5,0.6-0.6
		c1.4,1,2.8,2.5,2.8,2.5c4.9-1.9,3.1,5.8,4.2,1.5c1.1-4.4-2.6-9.3-1.4-9.4c1.2-0.1,0.6-1.1,0.6-1.1s-3.2-2.7-2.8-3
		c0.4-0.3,1.8-1.1,0.1-1.2c-1.7-0.1-5.8-3.2-4.9-3.3c0.9-0.1,2.5-2,2-2.2c-0.4-0.2-1.7-3-1.7-3s-0.8-1.1-3.5-0.8
		c-2.7,0.3-1.8-0.7-1.8-0.7s-0.2-1.6-4.6,0.5c-3.8,1.8-3.6,6.3-3.5,7.4c-0.6-8.1-6.8-7.7-5.7-7.2c1.1,0.5-13.1,2.7-8.8,6.3
		c4.3,3.6,2.2,1,4.5,2.2c2.3,1.1,1.3,1.1-1.7,2.7c-3,1.6,0.2,0.5,0.2,0.5s-4.2,5.8-2.7,5c1.5-0.8,1,0.7,1,0.7S347,253.3,347.8,253.4
		z"/>
	<path class="st2" d="M276.6,308.4c10.2-4.8,30.3-12.2,57.9-12.1c0,0-26.6-3.1-67.3,10.8C270.1,307.4,273.3,307.8,276.6,308.4z"/>
	<path class="st2" d="M290.2,310.8c2.8,0.6,5.6,1.2,8.3,1.9c9.8-4.8,30.4-12.7,58.9-12.6C357.5,300,330.9,296.9,290.2,310.8z"/>
	<path class="st2" d="M269.8,225.3c-2.4-0.4-1.2-1.1-1.2-1.1c2.4-0.8,4.6-2.8,4-2.7c-0.6,0.2-0.6-0.5-0.6-0.5c0.3-2.2,1-1.2,0.3-2.1
		c-0.7-0.9-0.2-2.7-0.2-2.9c-0.1-0.2-0.8,0.2-2,0.3c-1.3,0.1-1.3-0.3-1.3-0.3c-2.4,0.6-3,1.3-3.3,2.4c-0.2,1-0.6,1.3-1.2,2.2
		c-0.6,0.9-0.6,0-0.6,0s-0.1-1.8-0.2-2.1c0-0.3-0.3,0.7-0.4-0.1c0-0.8,0.1-1.7,0.1-1.7c-2-1.2,1.2-2.7-0.6-1.9c-1.9,0.8-2.6,3.4-3,3
		c-0.4-0.4-0.6,0.1-0.6,0.1s-0.1,1.9-0.3,1.8c-0.2,0-0.9-0.3-0.5,0.3c0.4,0.6,0.4,2.9,0.1,2.6c-0.3-0.3-1.4-0.3-1.3-0.1l-0.6,1.4
		c0,0-0.2,0.6,0.7,1.4c0.8,0.9,0.2,0.8,0.2,0.8s-0.5,0.5,1.4,1.5c1.7,0.8,3.2-0.4,3.6-0.7c-2.7,2.4-0.9,4.5-1,4
		c-0.1-0.5,4.5,3.9,4.6,1.4c0.1-2.5-0.2-1-0.4-2.2c-0.2-1.1,0.1-0.7,1.4-0.1c1.4,0.6,0.1-0.2,0.1-0.2s3.2-0.1,2.5-0.4
		c-0.7-0.3,0-0.6,0-0.6s4.1-1.3,3.9-1.6c-0.2-0.3-1.1-1.2-1.3-1.6C272,225.3,272.2,225.8,269.8,225.3z"/>
	<path class="st2" d="M441.9,195.1c0.8-0.3,1.3,0,1.6,0.8l1.1-0.4l-3.7-9.5l-1.1,0.4c0.4,1.1,0.3,1.8-0.5,2.1l-20.1,7.8l11.8-25.4
		c0.5-1.2,0.9-1.8,1.3-1.9c0.4-0.2,0.7-0.1,0.8,0.3l1.1-0.4l-4.2-10.8l-1.1,0.4c0.3,0.8,0.1,1.3-0.7,1.6L399.6,171
		c-0.8,0.3-1.3,0-1.6-0.8l-1.1,0.4l3.6,9.3l1.1-0.4c-0.4-1-0.2-1.6,0.6-1.9l21-8.1l-12.6,27c-0.4,0.9-0.8,1.5-1.1,1.6
		c-0.4,0.1-0.7-0.1-0.9-0.6l-1.1,0.4l3.9,10.2l1.1-0.4c-0.3-0.8-0.1-1.3,0.7-1.6L441.9,195.1z"/>
	<path class="st2" d="M453.2,249.8c-0.5,0-0.9-0.1-1.2-0.5c-0.3-0.4-0.5-1-0.6-2l-2.4-30.8l-1.2,0.1c0,0.3-0.1,0.6-0.2,0.9
		c-0.2,0.3-0.5,0.4-0.9,0.4l-30.6,2.4c-0.4,0-0.7-0.1-0.9-0.3c-0.2-0.2-0.3-0.5-0.4-0.8l-1.2,0.1l2.5,31.5c0.1,0.7,0.1,1.2,0,1.7
		c-0.1,0.4-0.4,0.7-1.1,0.7l0.1,1.2l9.2-0.7l-0.1-1.2c-0.5,0-1-0.1-1.3-0.5c-0.4-0.4-0.6-0.9-0.6-1.6l-1.8-22.5l9.3-0.7l1.1,13.2
		c0.1,0.9,0,1.6-0.3,2.1c-0.3,0.5-0.9,0.8-1.9,0.9l0.1,1.2l10.5-0.8l-0.1-1.2c-1,0.1-1.7-0.1-2-0.6c-0.3-0.5-0.5-1.2-0.5-2.1
		l-1.1-13.2l8.4-0.7l1.7,21.9c0.1,0.9,0,1.6-0.2,2c-0.2,0.4-0.6,0.6-1.1,0.7l0.1,1.2l8.9-0.7L453.2,249.8z"/>
	<path class="st2" d="M188.7,202.9c2.1,1.3,3.1,1.3,4,0.8c0.9-0.5,1.4-0.5,2.4-0.7c1-0.2,0.3,0.4,0.3,0.4s-1.2,1.3-1.4,1.5
		c-0.2,0.2,0.7-0.2,0.2,0.3c-0.5,0.6-1.3,1-1.3,1c0.5,2.3-2.8,0.9-1,1.7c1.8,0.8,4.3-0.4,4.2,0.1c0,0.6,0.4,0.3,0.4,0.3l1.5-1
		c0.1,0.2,0.4,0.9,0.5,0.1c0.2-0.7,1.8-2.3,1.8-1.9c0,0.4,0.7,1.2,0.8,1.1l1.4-0.5c0,0,0.5-0.3,0.6-1.5c0.1-1.2,0.5-0.7,0.5-0.7
		s0.7,0,0.1-2c-0.5-1.8-2.5-2.1-3-2.1c3.6,0.3,3.9-2.4,3.6-2c-0.3,0.4-0.2-6-2.1-4.3c-1.9,1.6-0.6,0.9-1.3,1.8
		c-0.7,0.9-0.6,0.5-1.1-1c-0.5-1.4-0.3,0-0.3,0s-2.2-2.3-2-1.5c0.3,0.7-0.4,0.4-0.4,0.4s-3.7-2.1-3.8-1.8c-0.1,0.3-0.1,1.6-0.3,2.1
		c-0.2,0.4,0,0,1.4,2.1c1.4,2.1,0,1.7,0,1.7c-2.2-1.1-5.2-1.4-4.7-1.1c0.5,0.3,0.1,0.8,0.1,0.8c-1.8,1.3-1.5,0.1-1.7,1.2
		c-0.2,1.1-1.9,2-2,2.2c-0.1,0.2,0.7,0.4,1.6,1.2C189,202.6,188.7,202.9,188.7,202.9z"/>
	<path class="st2" d="M225,158.4c1.1,0.7,2.8,4.3,2.1,4c-0.6-0.3-2.4,0.5-2.2,0.8c0.2,0.3,0.1,2.6,0.1,2.6s0.2,1.1,2.1,1.8
		c1.9,0.7,1,1.1,1,1.1s-0.4,1.2,3.3,1.3c3.2,0.1,4.7-3,5.1-3.8c-2.5,5.8,1.9,7.7,1.3,7c-0.6-0.7,10,2.9,8.3-1.2
		c-1.7-4.1-1.1-1.5-2.3-3.1c-1.2-1.6-0.5-1.2,2.2-1.3c2.6,0,0.1-0.4,0.1-0.4s5-2.5,3.6-2.5c-1.3,0-0.5-0.8-0.5-0.8s5.5-5,5-5.4
		c-0.5-0.4-2.6-1-3.2-1.6c-0.6-0.5,0,0-4.2,1.1c-4.2,1.1-2.8-0.9-2.8-0.9c3.1-3.1,5.1-7.8,4.3-7.1c-0.8,0.7-1.3-0.3-1.3-0.3
		c-1.2-3.6,0.7-2.6-1-3.5c-1.7-0.9-2.3-4.2-2.6-4.4c-0.3-0.3-1,0.9-2.9,2c-1.9,1.1-2.2,0.4-2.2,0.4c-3.3,2.8-3.8,4.4-3.4,6.1
		c0.4,1.8,0.1,2.5-0.2,4.3c-0.3,1.8-0.9,0.3-0.9,0.3s-1.5-2.7-1.8-3.2c-0.3-0.4,0,1.3-0.6,0.2c-0.6-1.2-1-2.7-1-2.7
		c-4-0.5,0-5.1-2.3-2.5c-2.3,2.6-1.6,7.3-2.5,7c-0.9-0.4-0.8,0.5-0.8,0.5s1.2,3,0.8,3.1C225.2,157.7,223.9,157.7,225,158.4z"/>
	<path class="st2" d="M291.3,262.7c2.3,0.9,1,0.1,2.1,0.3c1.1,0.2,0.7,0.3-0.3,1.3c-1,1,0.1,0.2,0.1,0.2s-1,2.9-0.4,2.4
		c0.5-0.5,0.5,0.1,0.5,0.1s-0.2,4.2,0.2,4.1c0.3-0.1,1.4-0.6,1.9-0.7c0.5,0,0,0,1.2-2.1c1.2-2.1,1.4-0.8,1.4-0.8
		c0,2.4,1.1,5.1,1.2,4.5c0-0.6,0.6-0.4,0.6-0.4c1.9,0.9,0.8,1.3,1.8,1c1-0.3,2.6,0.7,2.8,0.7c0.2,0,0.1-0.8,0.4-1.9
		c0.3-1.2,0.7-1.1,0.7-1.1c0.2-2.4-0.3-3.2-1.1-3.7c-0.9-0.5-1-1-1.6-1.8c-0.6-0.8,0.2-0.5,0.2-0.5s1.7,0.5,2,0.5
		c0.3,0.1-0.5-0.5,0.2-0.3c0.7,0.2,1.5,0.7,1.5,0.7c1.8-1.4,2,2,1.9,0c-0.1-1.9-2.3-3.5-1.8-3.7c0.5-0.2,0.1-0.5,0.1-0.5l-1.6-0.9
		c0.1-0.2,0.6-0.7-0.1-0.5c-0.7,0.2-2.8-0.6-2.4-0.7c0.4-0.1,0.8-1.1,0.5-1.2l-1.1-1c0,0-0.5-0.3-1.5,0.1c-1.1,0.5-0.8-0.1-0.8-0.1
		s-0.3-0.6-1.8,0.8c-1.3,1.2-0.7,3.1-0.5,3.5c-1.3-3.2-3.8-2.3-3.3-2.2C294.6,259,289.1,261.8,291.3,262.7z"/>
</g>
</svg>
