<svg xmlns="http://www.w3.org/2000/svg" xmlns:xlink="http://www.w3.org/1999/xlink" width="20" height="20" viewBox="0 0 20 20"><defs><clipPath id="b"><rect width="20" height="20"/></clipPath></defs><g id="a" clip-path="url(#b)"><path d="M15.339,3.5a5.649,5.649,0,0,1,3.995,9.645l-7.471,7.471a1,1,0,0,1-1.414,0L2.978,13.142a5.649,5.649,0,1,1,7.99-7.989l.189.189.189-.189A5.611,5.611,0,0,1,15.339,3.5ZM11.156,18.492l6.764-6.764a3.649,3.649,0,1,0-5.161-5.161l-.9.9a1,1,0,0,1-1.414,0l-.9-.9a3.649,3.649,0,1,0-5.161,5.161Z" transform="translate(-1.156 -2.202)" fill="#a11d34"/></g></svg>