<svg xmlns="http://www.w3.org/2000/svg" xmlns:xlink="http://www.w3.org/1999/xlink" width="20" height="20" viewBox="0 0 20 20"><defs><clipPath id="b"><rect width="20" height="20"/></clipPath></defs><g id="a" clip-path="url(#b)"><g transform="translate(-2.45 -1.833)"><path d="M12.45,2a1,1,0,0,1,.614.211l7.95,6.183a1,1,0,0,1,.386.789V18.9a2.77,2.77,0,0,1-2.767,2.767H6.267A2.77,2.77,0,0,1,3.5,18.9V9.183a1,1,0,0,1,.386-.789l7.95-6.183A1,1,0,0,1,12.45,2ZM19.4,9.672,12.45,4.267,5.5,9.672V18.9a.768.768,0,0,0,.767.767H18.633A.768.768,0,0,0,19.4,18.9Z" fill="#a11d34"/><path d="M19.283,28.638a1,1,0,0,1-1-1V19H14.5v8.638a1,1,0,0,1-2,0V18a1,1,0,0,1,1-1h5.783a1,1,0,0,1,1,1v9.638A1,1,0,0,1,19.283,28.638Z" transform="translate(-3.941 -6.972)" fill="#a11d34"/></g></g></svg>