<svg xmlns="http://www.w3.org/2000/svg" xmlns:xlink="http://www.w3.org/1999/xlink" width="20" height="20" viewBox="0 0 20 20"><defs><clipPath id="b"><rect width="20" height="20"/></clipPath></defs><g id="a" clip-path="url(#b)"><g transform="translate(-369.173 -204.333)"><g transform="translate(371.621 208.618)"><path d="M5.425,8.725a3.3,3.3,0,1,1,3.3-3.3A3.3,3.3,0,0,1,5.425,8.725Zm0-4.85a1.55,1.55,0,1,0,1.55,1.55A1.552,1.552,0,0,0,5.425,3.875Z" transform="translate(-3 -3)" fill="#a11d34"/></g><g transform="translate(376.748 208.618)"><path d="M5.425,8.725a3.3,3.3,0,1,1,3.3-3.3A3.3,3.3,0,0,1,5.425,8.725Zm0-4.85a1.55,1.55,0,1,0,1.55,1.55A1.552,1.552,0,0,0,5.425,3.875Z" transform="translate(-3 -3)" fill="#a11d34"/></g><g transform="translate(374.323 213.467)"><path d="M5.425,8.725a3.3,3.3,0,1,1,3.3-3.3A3.3,3.3,0,0,1,5.425,8.725Zm0-4.85a1.55,1.55,0,1,0,1.55,1.55A1.552,1.552,0,0,0,5.425,3.875Z" transform="translate(-3 -3)" fill="#a11d34"/></g><g transform="translate(381.876 208.618)"><path d="M5.425,8.725a3.3,3.3,0,1,1,3.3-3.3A3.3,3.3,0,0,1,5.425,8.725Zm0-4.85a1.55,1.55,0,1,0,1.55,1.55A1.552,1.552,0,0,0,5.425,3.875Z" transform="translate(-3 -3)" fill="#a11d34"/></g><g transform="translate(379.451 213.467)"><path d="M5.425,8.725a3.3,3.3,0,1,1,3.3-3.3A3.3,3.3,0,0,1,5.425,8.725Zm0-4.85a1.55,1.55,0,1,0,1.55,1.55A1.552,1.552,0,0,0,5.425,3.875Z" transform="translate(-3 -3)" fill="#a11d34"/></g><g transform="translate(376.748 218.317)"><path d="M5.425,8.725a3.3,3.3,0,1,1,3.3-3.3A3.3,3.3,0,0,1,5.425,8.725Zm0-4.85a1.55,1.55,0,1,0,1.55,1.55A1.552,1.552,0,0,0,5.425,3.875Z" transform="translate(-3 -3)" fill="#a11d34"/></g><path d="M.875,3.325H-.875V0H.875Z" transform="translate(379.469 205.5)" fill="#a11d34"/><path d="M11.639.875H0A.875.875,0,0,1-.875,0,.875.875,0,0,1,0-.875H11.639A.875.875,0,0,1,12.514,0,.875.875,0,0,1,11.639.875Z" transform="translate(373.649 205.5)" fill="#a11d34"/></g></g></svg>