<svg xmlns="http://www.w3.org/2000/svg" xmlns:xlink="http://www.w3.org/1999/xlink" width="20" height="20" viewBox="0 0 20 20"><defs><clipPath id="b"><rect width="20" height="20"/></clipPath></defs><g id="a" clip-path="url(#b)"><path d="M18.428,21c-.081,0-.163,0-.244-.011l-.018,0a17.969,17.969,0,0,1-7.795-2.772A17.75,17.75,0,0,1,4.952,12.8,17.969,17.969,0,0,1,2.18,4.965l0-.016A2.706,2.706,0,0,1,4.871,2H7.449a2.719,2.719,0,0,1,2.679,2.327v.009a9.968,9.968,0,0,0,.543,2.178,2.713,2.713,0,0,1-.61,2.853l0,0L9.53,9.9a12.657,12.657,0,0,0,3.7,3.7l.528-.528,0,0a2.706,2.706,0,0,1,2.855-.609A9.964,9.964,0,0,0,18.8,13h.009a2.706,2.706,0,0,1,2.328,2.733v2.548A2.706,2.706,0,0,1,18.428,21Zm-.056-2a.706.706,0,0,0,.762-.707V15.728q0-.012,0-.025a.706.706,0,0,0-.6-.716,11.971,11.971,0,0,1-2.61-.651.706.706,0,0,0-.746.157l-1.081,1.081a1,1,0,0,1-1.2.162A14.656,14.656,0,0,1,7.4,10.242a1,1,0,0,1,.162-1.2L8.641,7.96A.708.708,0,0,0,8.8,7.216,11.976,11.976,0,0,1,8.147,4.6a.709.709,0,0,0-.7-.6H4.872a.706.706,0,0,0-.7.763,15.959,15.959,0,0,0,2.463,6.949l0,.007a15.737,15.737,0,0,0,4.811,4.811l.008,0A15.96,15.96,0,0,0,18.371,19Z" transform="translate(-1.651 -1.5)" fill="#a11d34"/></g></svg>