<svg xmlns="http://www.w3.org/2000/svg" xmlns:xlink="http://www.w3.org/1999/xlink" width="20" height="20" viewBox="0 0 20 20"><defs><clipPath id="b"><rect width="20" height="20"/></clipPath></defs><g id="a" clip-path="url(#b)"><g transform="translate(-3.704 -3.167)"><path d="M21.407,29.278a1,1,0,0,1-1-1V26.352A2.855,2.855,0,0,0,17.556,23.5h-7.7A2.852,2.852,0,0,0,7,26.352v1.926a1,1,0,0,1-2,0V26.352A4.852,4.852,0,0,1,9.852,21.5h7.7a4.857,4.857,0,0,1,4.852,4.852v1.926A1,1,0,0,1,21.407,29.278Z" transform="translate(0 -6.444)" fill="#a11d34"/><path d="M15.852,13.2A4.852,4.852,0,1,1,20.7,8.352,4.857,4.857,0,0,1,15.852,13.2Zm0-7.7A2.852,2.852,0,1,0,18.7,8.352,2.855,2.855,0,0,0,15.852,5.5Z" transform="translate(-2.148)" fill="#a11d34"/></g></g></svg>