<svg xmlns="http://www.w3.org/2000/svg" xmlns:xlink="http://www.w3.org/1999/xlink" width="20" height="20" viewBox="0 0 20 20"><defs><clipPath id="b"><rect width="20" height="20"/></clipPath></defs><g id="a" clip-path="url(#b)"><g transform="translate(-0.333 0.068)"><path d="M12.8,29A1.8,1.8,0,1,1,11,30.8,1.805,1.805,0,0,1,12.8,29Z" transform="translate(-4.879 -13.243)" fill="#a11d34"/><path d="M29.3,29a1.8,1.8,0,1,1-1.8,1.8A1.805,1.805,0,0,1,29.3,29Z" transform="translate(-12.546 -13.243)" fill="#a11d34"/><path d="M16.307,14.545H8.478a2.6,2.6,0,0,1-2.595-2.1l-1.34-6.7q-.009-.038-.015-.077L3.892,2.5H1.5a1,1,0,0,1,0-2H4.712a1,1,0,0,1,.981.8l.643,3.211H19.166A1,1,0,0,1,20.149,5.7L18.864,12.44v.007A2.6,2.6,0,0,1,16.307,14.545Zm-7.837-2h7.836a.605.605,0,0,0,.594-.485l1.058-5.545H6.736l1.109,5.541a.606.606,0,0,0,.606.489Z" transform="translate(0 0)" fill="#a11d34"/></g></g></svg>