<svg xmlns="http://www.w3.org/2000/svg" xmlns:xlink="http://www.w3.org/1999/xlink" width="20" height="20" viewBox="0 0 20 20"><defs><clipPath id="b"><rect width="20" height="20"/></clipPath></defs><g id="a" clip-path="url(#b)"><g transform="translate(-2.167 -2.167)"><path d="M9.611,20.833H6.2a2.707,2.707,0,0,1-2.7-2.7V6.2A2.7,2.7,0,0,1,6.2,3.5H9.611a1,1,0,1,1,0,2H6.2a.7.7,0,0,0-.7.7V18.13a.7.7,0,0,0,.7.7H9.611a1,1,0,1,1,0,2Z" fill="#a11d34"/><path d="M24,20.019a1,1,0,0,1-.707-1.707l3.552-3.552-3.552-3.552a1,1,0,0,1,1.414-1.414l4.259,4.259a1,1,0,0,1,0,1.414l-4.259,4.259A1,1,0,0,1,24,20.019Z" transform="translate(-8.426 -2.593)" fill="#a11d34"/><path d="M23.722,19H13.5a1,1,0,0,1,0-2H23.722a1,1,0,1,1,0,2Z" transform="translate(-3.889 -5.833)" fill="#a11d34"/></g></g></svg>