<svg xmlns="http://www.w3.org/2000/svg" xmlns:xlink="http://www.w3.org/1999/xlink" width="20" height="20" viewBox="0 0 20 20"><defs><clipPath id="b"><rect width="20" height="20"/></clipPath></defs><g id="a" clip-path="url(#b)"><path d="M17.583,7.6h-.04a6,6,0,0,0-11.92,0h-.04a3.333,3.333,0,1,0,0,6.667H6.917v-6a4.667,4.667,0,0,1,9.333,0v6.667a2.667,2.667,0,0,1-2.113,2.607,2.667,2.667,0,1,0,.033,1.333,4,4,0,0,0,3.413-3.94v-.667a3.333,3.333,0,0,0,0-6.667Zm-14,3.333a2,2,0,0,1,2-2v4A2,2,0,0,1,3.583,10.934Zm8,8.667a1.333,1.333,0,1,1,1.333-1.333A1.333,1.333,0,0,1,11.583,19.6Zm6-6.667v-4a2,2,0,0,1,0,4Z" transform="translate(-1.583 -1.615)" fill="#a11d34"/><path d="M11.583,2.042a6.25,6.25,0,0,1,6.179,5.313,3.583,3.583,0,0,1,.071,7.154v.425a4.25,4.25,0,0,1-3.462,4.16,2.9,2.9,0,0,1-2.8,2.095A2.917,2.917,0,1,1,14.3,17.24,2.43,2.43,0,0,0,16,14.934V8.267a4.417,4.417,0,1,0-8.833,0v6.25H5.583A3.583,3.583,0,0,1,5.4,7.355,6.25,6.25,0,0,1,11.583,2.042Zm6,11.975a3.083,3.083,0,0,0,0-6.167H17.32l-.026-.221a5.75,5.75,0,0,0-11.423,0l-.026.221H5.583a3.083,3.083,0,0,0,0,6.167H6.667V8.267a4.917,4.917,0,1,1,9.833,0v6.667a2.931,2.931,0,0,1-2.311,2.851l-.228.048-.064-.224a2.417,2.417,0,1,0-2.569,3.067,2.45,2.45,0,0,0,.247.013,2.4,2.4,0,0,0,2.352-1.871l.038-.166.168-.025a3.729,3.729,0,0,0,3.2-3.694v-.916Zm-12-5.333h.25v4.5h-.25a2.25,2.25,0,1,1,0-4.5Zm-.25,3.982V9.2a1.75,1.75,0,0,0,0,3.464Zm12-3.982h.25a2.25,2.25,0,1,1,0,4.5h-.25Zm.5,3.982a1.75,1.75,0,0,0,0-3.464Zm-6.25,4.018A1.583,1.583,0,1,1,10,18.267,1.585,1.585,0,0,1,11.583,16.684Zm0,2.667A1.083,1.083,0,1,0,10.5,18.267,1.085,1.085,0,0,0,11.583,19.35Z" transform="translate(-1.583 -1.615)" fill="#a11d34"/></g></svg>