<svg xmlns="http://www.w3.org/2000/svg" xmlns:xlink="http://www.w3.org/1999/xlink" width="20" height="20" viewBox="0 0 20 20"><defs><clipPath id="b"><rect width="20" height="20"/></clipPath></defs><g id="a" clip-path="url(#b)"><g transform="translate(-1.75 -0.361)"><path d="M11.75.5A8.259,8.259,0,0,1,20,8.75c0,6.1-7.381,11.095-7.7,11.3a1,1,0,0,1-1.109,0c-.314-.209-7.7-5.2-7.7-11.3A8.259,8.259,0,0,1,11.75.5Zm0,17.49C13.372,16.769,18,12.92,18,8.75a6.25,6.25,0,0,0-12.5,0C5.5,12.93,10.125,16.77,11.749,17.99Z" fill="#a7acae"/><path d="M15.917,9.5A3.417,3.417,0,1,1,12.5,12.917,3.421,3.421,0,0,1,15.917,9.5Zm0,4.833A1.417,1.417,0,1,0,14.5,12.917,1.418,1.418,0,0,0,15.917,14.333Z" transform="translate(-4.167 -4.167)" fill="#a7acae"/></g></g></svg>