<svg xmlns="http://www.w3.org/2000/svg" xmlns:xlink="http://www.w3.org/1999/xlink" width="23" height="23" viewBox="0 0 23 23"><defs><clipPath id="b"><rect width="23" height="23"/></clipPath></defs><g id="a" clip-path="url(#b)"><g transform="translate(-1.875 -1.693)"><path d="M19.5,25.562H5.062A3.066,3.066,0,0,1,2,22.5V8.062A3.062,3.062,0,0,1,5.062,5h7.219a1,1,0,1,1,0,2H5.062A1.063,1.063,0,0,0,4,8.062V22.5a1.064,1.064,0,0,0,1.062,1.062H19.5A1.064,1.064,0,0,0,20.562,22.5V15.281a1,1,0,1,1,2,0V22.5A3.066,3.066,0,0,1,19.5,25.562Z" transform="translate(0 -0.994)" fill="#6e7477"/><path d="M24.375,1.818A3.188,3.188,0,0,1,26.629,7.26l-9.8,9.8a1,1,0,0,1-.465.263l-4.125,1.031a1,1,0,0,1-1.213-1.213l1.031-4.125a1,1,0,0,1,.263-.465l9.8-9.8A3.167,3.167,0,0,1,24.375,1.818ZM15.614,15.446l9.6-9.6a1.188,1.188,0,1,0-1.68-1.679l-9.6,9.6-.56,2.239Z" transform="translate(-2.813 0)" fill="#6e7477"/></g></g></svg>