<svg xmlns="http://www.w3.org/2000/svg" xmlns:xlink="http://www.w3.org/1999/xlink" width="22" height="20" viewBox="0 0 22 20"><defs><clipPath id="b"><rect width="22" height="20"/></clipPath></defs><g id="a" clip-path="url(#b)"><path d="M23.945,14.551,18.484,7.093a.78.78,0,0,0-.632-.343H3.03a.78.78,0,0,0-.78.78V20.792a.78.78,0,0,0,.78.78H4.7a3.121,3.121,0,0,0,6.023,0h4.9a3.121,3.121,0,0,0,6.023,0h1.669a.78.78,0,0,0,.78-.78v-5.8a.78.78,0,0,0-.148-.437ZM16.292,8.31h1.162l4,5.461H16.292ZM7.711,22.353a1.56,1.56,0,1,1,1.56-1.56A1.56,1.56,0,0,1,7.711,22.353Zm10.922,0a1.56,1.56,0,1,1,1.56-1.56A1.56,1.56,0,0,1,18.633,22.353Zm3.9-2.34h-.889a3.121,3.121,0,0,0-6.023,0h-4.9a3.121,3.121,0,0,0-6.023,0H3.81V8.31H14.732v7.021h7.8Z" transform="translate(-2.172 -5.312)" fill="#a7acae"/></g></svg>