<svg xmlns="http://www.w3.org/2000/svg" xmlns:xlink="http://www.w3.org/1999/xlink" width="20" height="20" viewBox="0 0 20 20"><defs><clipPath id="b"><rect width="20" height="20"/></clipPath></defs><g id="a" clip-path="url(#b)"><g transform="translate(-2.52 -2.52)"><path d="M11.628,19.757a8.128,8.128,0,1,1,8.128-8.128A8.138,8.138,0,0,1,11.628,19.757Zm0-14.257a6.128,6.128,0,1,0,6.128,6.128A6.135,6.135,0,0,0,11.628,5.5Z" fill="#6e7477"/><path d="M28.851,29.851a1,1,0,0,1-.707-.293l-3.876-3.876a1,1,0,0,1,1.414-1.414l3.876,3.876a1,1,0,0,1-.707,1.707Z" transform="translate(-8.312 -8.312)" fill="#6e7477"/></g></g></svg>